<svg xmlns="http://www.w3.org/2000/svg" version="1.0" width="800.000000pt" height="1000.000000pt" viewBox="0 0 800.000000 1000.000000" preserveAspectRatio="xMidYMid meet" style="background-color: #d5d4d5; background-size: cover;     background-position: center;">
  <g transform="translate(0.000000,1000.000000) scale(0.100000,-0.100000)" fill="#38405a" stroke="none">
    <path d="M6245 9565 c-89 -278 -85 -333 56 -743 81 -235 152 -492 157 -562 4 -72 -5 -72 -32 0 -21 54 -113 212 -236 404 -134 211 -175 304 -215 490 -4 21 -9 26 -17 18 -7 -7 -11 -66 -12 -159 0 -124 4 -161 22 -228 36 -126 119 -286 216 -410 293 -379 291 -375 300 -505 4 -52 16 -135 26 -184 19 -87 19 -119 -1 -83 -6 10 -65 86 -132 170 -67 84 -161 211 -209 284 -49 72 -107 154 -131 181 -38 45 -45 61 -59 137 -22 118 -61 191 -168 320 -114 136 -127 154 -170 234 l-35 66 -48 3 c-64 4 -91 -14 -125 -86 l-27 -57 -74 -20 c-82 -22 -131 -58 -131 -96 0 -17 -11 -30 -38 -44 -34 -19 -37 -24 -36 -61 0 -22 11 -62 24 -88 18 -38 20 -50 10 -56 -11 -7 -4 -28 28 -98 23 -50 42 -99 42 -109 0 -10 12 -36 26 -58 66 -99 117 -129 209 -123 50 3 86 16 210 75 162 77 208 93 270 93 36 0 45 -5 80 -47 21 -25 86 -116 143 -202 57 -86 144 -205 192 -266 176 -223 170 -212 170 -293 0 -40 -3 -72 -6 -72 -3 0 -31 22 -62 49 -31 26 -82 66 -112 87 -63 44 -381 205 -392 198 -4 -3 19 -37 51 -77 32 -40 92 -115 134 -168 139 -175 279 -287 396 -318 22 -6 31 -21 56 -92 37 -101 120 -259 183 -348 l47 -65 -75 41 c-87 47 -163 80 -275 120 -72 25 -89 37 -169 113 -48 47 -148 159 -221 250 -141 176 -250 287 -337 342 -60 38 -166 84 -175 75 -3 -3 24 -46 59 -94 36 -49 98 -149 138 -223 95 -174 127 -222 197 -293 83 -84 188 -133 313 -147 100 -12 166 -30 315 -87 170 -66 308 -165 519 -371 90 -89 102 -106 152 -209 75 -157 156 -408 193 -595 32 -162 37 -208 23 -208 -4 0 -24 16 -43 36 -32 33 -150 133 -198 167 -17 11 -32 55 -67 183 -56 212 -81 280 -150 414 -65 128 -118 213 -171 271 -40 44 -109 99 -125 99 -18 0 4 -83 74 -279 99 -278 177 -431 274 -545 19 -22 32 -41 30 -43 -2 -2 -48 27 -103 66 -105 74 -115 86 -288 341 -184 272 -249 333 -601 570 -121 82 -245 169 -276 195 -51 42 -78 55 -78 38 0 -13 204 -348 264 -433 141 -200 397 -404 676 -539 52 -25 138 -77 190 -116 52 -39 149 -108 215 -155 152 -107 287 -214 347 -276 l47 -49 16 -135 c16 -142 43 -297 95 -545 18 -82 34 -162 37 -177 4 -23 29 -45 40 -35 2 2 -4 24 -12 48 -46 130 -169 809 -146 809 3 0 27 -27 53 -59 l48 -59 60 -273 c33 -151 76 -335 96 -409 39 -148 132 -362 146 -337 5 9 -3 34 -21 68 -32 58 -94 239 -105 304 l-7 40 29 -46 c29 -45 76 -89 94 -89 5 0 -9 21 -32 47 -92 105 -165 321 -158 472 l3 66 24 -40 c14 -22 73 -137 133 -254 83 -165 108 -208 108 -183 0 40 -107 263 -201 419 l-71 118 6 70 c11 114 35 240 77 409 l40 160 75 105 c41 57 74 111 74 118 0 21 -34 -18 -65 -76 -16 -28 -32 -51 -37 -51 -8 0 -3 34 9 70 3 8 6 31 8 50 2 19 22 91 44 159 52 158 53 214 1 66 l-38 -110 -1 215 c-1 118 -8 307 -16 420 -8 113 -15 274 -15 358 0 145 1 152 20 152 10 0 35 7 54 17 32 15 35 20 34 59 0 27 -4 41 -11 37 -10 -6 -9 4 7 52 4 11 -1 4 -11 -15 -10 -19 -21 -37 -25 -40 -3 -3 -10 -18 -13 -33 -4 -15 -10 -26 -12 -23 -3 3 0 21 7 40 7 22 8 41 2 52 -7 12 -11 3 -15 -36 -7 -62 -14 -71 -32 -47 -36 49 -27 406 12 513 17 45 21 49 56 52 47 4 52 31 5 29 -27 -2 -33 2 -38 23 -5 22 -7 23 -13 6 -6 -15 -10 -16 -22 -6 -11 9 -15 9 -15 1 0 -8 -12 -10 -37 -5 -49 9 -83 31 -83 54 0 20 114 130 135 130 8 0 23 -20 34 -44 10 -24 31 -61 45 -82 37 -54 33 -16 -3 42 -17 25 -33 59 -36 75 -11 50 -50 36 -137 -48 -31 -31 -61 -52 -67 -49 -14 9 -77 -19 -89 -39 -6 -11 -5 -39 4 -79 7 -35 20 -120 29 -191 9 -71 21 -149 27 -174 26 -105 88 -212 141 -240 l24 -13 0 -197 c0 -128 8 -277 23 -431 26 -272 23 -495 -8 -640 l-18 -85 -7 155 c-6 153 -43 421 -72 529 -8 31 -35 144 -60 251 -45 191 -93 350 -107 350 -3 0 -15 -26 -25 -57 -15 -49 -18 -92 -17 -268 0 -199 2 -218 32 -354 18 -80 66 -253 108 -385 42 -133 83 -275 91 -316 15 -75 15 -75 -20 -215 -20 -77 -45 -204 -58 -282 -12 -79 -25 -143 -28 -143 -21 0 -53 78 -70 171 -11 57 -24 124 -30 149 -16 72 -69 461 -86 630 -48 478 -142 1049 -229 1400 -27 110 -15 9 24 -196 74 -388 119 -648 140 -809 30 -239 27 -252 -24 -100 -97 290 -244 615 -278 615 -15 0 -8 -85 11 -155 11 -39 42 -170 70 -292 66 -290 122 -422 253 -593 21 -28 29 -54 38 -125 18 -141 68 -444 84 -513 8 -34 11 -62 8 -62 -4 0 -26 22 -50 50 -39 45 -43 56 -52 127 -5 43 -12 92 -15 108 -72 381 -184 664 -400 1010 -111 178 -136 288 -138 623 l-2 216 30 7 c17 5 56 35 89 68 52 53 62 59 91 54 31 -5 32 -4 62 68 39 93 60 165 73 256 11 67 10 74 -11 111 l-23 39 -55 -29 c-30 -16 -66 -28 -80 -26 -22 3 -26 9 -29 41 -3 33 -6 38 -25 35 -13 -1 -37 8 -55 21 -40 28 -102 38 -141 21 -16 -6 -47 -31 -69 -53 -22 -23 -51 -50 -66 -60 -14 -10 -26 -23 -26 -28 0 -6 12 -1 26 10 34 27 42 26 50 -4 6 -23 59 -78 83 -86 17 -6 31 -111 31 -234 l0 -110 -20 30 c-11 17 -20 26 -21 20 0 -5 -5 -1 -10 10 -8 17 -8 16 -3 -5 10 -39 13 -90 5 -90 -11 0 -97 93 -112 120 -9 17 -13 61 -11 140 1 63 -2 127 -6 142 -4 16 -8 -33 -9 -115 -1 -78 2 -156 8 -174 12 -36 115 -137 166 -161 18 -9 36 -25 38 -37 2 -11 6 -126 8 -255 4 -191 8 -250 25 -312 10 -43 18 -78 16 -78 -5 0 -120 177 -166 255 -85 143 -169 331 -228 509 -31 95 -32 101 -21 169 11 65 89 316 112 359 5 10 33 30 62 44 80 41 163 134 223 250 90 172 163 435 186 669 11 103 6 185 -10 185 -4 0 -18 -26 -31 -58 -33 -79 -86 -162 -210 -332 -128 -174 -149 -206 -194 -296 -76 -150 -94 -269 -57 -374 l19 -55 -49 -146 c-27 -80 -55 -170 -62 -200 l-12 -54 -17 74 c-23 94 -39 290 -42 496 -2 147 0 169 27 275 17 68 31 153 33 207 6 108 -11 184 -107 483 -68 212 -103 349 -121 468 -7 45 -16 82 -20 82 -4 0 -28 -65 -54 -145z m34 -81 c0 -48 2 -89 6 -92 3 -3 5 19 6 49 l0 54 20 -65 c11 -36 31 -105 45 -155 20 -73 24 -81 19 -40 l-5 50 15 -40 c32 -81 105 -306 126 -387 27 -103 27 -208 0 -303 l-19 -70 -2 90 c-1 50 -5 110 -10 135 -5 29 -6 -1 -3 -80 5 -140 -5 -147 -33 -20 -9 41 -26 111 -39 155 -13 44 -29 103 -35 130 -18 83 -31 127 -36 123 -5 -5 23 -125 61 -263 20 -73 65 -275 65 -291 0 -2 -4 -4 -10 -4 -5 0 -10 10 -10 23 0 28 -28 141 -69 277 -18 58 -40 134 -51 170 -10 36 -19 58 -19 50 -1 -9 8 -47 20 -85 37 -127 60 -217 57 -221 -5 -4 -97 262 -136 391 -36 119 -46 196 -37 276 8 67 22 78 28 22 2 -21 4 -1 5 44 2 85 20 175 33 167 5 -2 8 -43 8 -90z m39 -4 c0 -22 -1 -22 -8 5 -4 17 -8 41 -8 55 0 22 1 22 8 -5 4 -16 8 -41 8 -55z m9 -52 c-3 -8 -6 -5 -6 6 -1 11 2 17 5 13 3 -3 4 -12 1 -19z m-277 -568 c18 -36 85 -144 148 -240 128 -194 210 -342 241 -439 26 -79 28 -109 6 -91 -8 7 -15 21 -15 32 0 57 -125 315 -229 471 -85 127 -90 135 -101 142 -6 4 3 -13 20 -37 17 -24 38 -54 47 -68 9 -14 29 -44 44 -67 16 -22 59 -101 95 -174 50 -100 67 -145 69 -181 l2 -47 -76 97 c-162 204 -193 250 -242 347 -61 124 -98 257 -79 280 11 13 15 13 21 3 5 -7 9 -20 9 -28 0 -13 -1 -13 -11 0 -21 30 2 -34 43 -120 58 -120 108 -205 180 -301 34 -46 82 -118 105 -159 24 -41 43 -68 43 -61 0 27 -72 146 -150 246 -50 64 -101 147 -144 233 -69 138 -85 196 -28 104 17 -29 34 -52 37 -52 7 0 -11 36 -37 72 -27 38 -74 156 -81 203 -6 33 -2 28 21 -30 16 -38 44 -99 62 -135z m1037 97 c-8 -19 -48 -83 -89 -143 -40 -60 -77 -115 -81 -124 -22 -38 49 55 114 150 47 68 69 94 65 75 -5 -16 -9 -55 -11 -85 l-3 -55 12 45 c21 81 25 26 5 -75 -29 -155 -76 -299 -137 -425 -47 -98 -66 -126 -127 -186 -40 -40 -83 -75 -95 -79 -57 -18 -63 73 -16 235 13 47 23 86 21 88 -10 11 -59 -175 -63 -243 l-6 -80 -12 40 c-7 22 -13 65 -13 95 -2 148 74 300 303 603 52 69 105 144 118 166 27 48 35 47 15 -2z m-1507 19 c0 -3 -10 -21 -21 -41 -21 -35 -23 -90 -5 -135 3 -8 -4 -26 -15 -39 -17 -21 -22 -22 -30 -10 -11 18 -12 52 -1 45 5 -3 6 8 4 25 -4 30 -22 51 -22 26 0 -8 -8 -17 -17 -20 -10 -2 -26 -8 -35 -12 -16 -6 -16 -3 1 47 30 84 32 88 60 103 24 13 81 21 81 11z m78 -114 c24 -36 82 -112 128 -170 92 -113 128 -166 151 -221 l15 -36 -22 20 c-12 11 -29 32 -38 47 -9 16 -20 28 -24 28 -4 0 12 -33 37 -72 25 -40 45 -78 45 -84 0 -6 -44 32 -97 85 -53 53 -79 76 -58 51 22 -24 43 -46 48 -48 10 -5 77 -93 77 -102 0 -12 -58 -4 -82 12 -37 25 -227 218 -271 276 -37 48 -39 54 -27 82 7 16 21 32 32 36 13 4 17 11 12 22 -26 61 -28 91 -9 133 17 36 21 39 30 24 5 -9 30 -47 53 -83z m-258 -40 c0 -4 -23 -30 -50 -57 -50 -49 -50 -49 -28 -62 l23 -12 -30 -12 c-38 -15 -60 -55 -42 -77 9 -12 9 -16 0 -19 -7 -3 -13 -12 -13 -21 0 -9 -17 -25 -37 -35 -42 -21 -45 -19 -69 61 -14 48 -14 55 0 77 8 13 29 26 46 30 25 5 29 10 24 29 -3 14 2 31 13 45 27 33 163 77 163 53z m76 -39 c3 -10 19 -47 36 -83 25 -52 59 -93 174 -207 79 -79 140 -143 136 -143 -4 0 -1 -4 7 -9 9 -6 10 -11 2 -15 -6 -4 -11 -2 -11 5 0 7 -9 9 -22 6 -11 -3 -34 1 -49 8 -15 8 -36 12 -46 9 -15 -5 -16 -4 -3 6 13 10 12 11 -4 6 -12 -4 -36 4 -65 23 -25 15 -93 53 -151 82 -57 30 -124 73 -148 96 -39 37 -42 44 -32 63 6 12 27 28 46 36 36 15 44 31 19 40 -28 11 -15 34 38 64 61 35 66 36 73 13z m-166 -268 c-28 -30 -25 -62 10 -102 28 -32 41 -61 21 -49 -5 4 -11 3 -13 -2 -6 -14 -79 -52 -89 -47 -5 4 -9 13 -9 21 0 8 -14 42 -31 75 -34 68 -34 69 41 105 19 9 39 23 43 30 6 11 12 11 27 2 19 -12 19 -13 0 -33z m216 -91 c169 -91 235 -134 206 -134 -7 0 -11 -4 -7 -9 7 -13 -77 -25 -111 -17 -17 5 -23 3 -19 -4 3 -5 26 -10 50 -10 26 0 45 -5 48 -12 4 -10 7 -10 18 0 7 6 18 12 23 12 6 0 0 -7 -12 -16 -12 -8 -27 -12 -32 -9 -6 3 -10 1 -10 -6 0 -7 -3 -9 -7 -6 -3 4 -13 1 -21 -6 -8 -6 -42 -15 -76 -18 l-61 -6 55 -2 55 -2 -69 -30 c-58 -26 -78 -31 -128 -27 -50 4 -63 9 -94 39 -20 19 -46 55 -59 80 l-24 47 75 38 74 38 -28 26 c-16 14 -37 38 -47 53 -16 25 -16 29 -1 52 9 14 18 25 20 25 1 0 83 -43 182 -96z m1464 -425 c32 -20 33 -22 15 -35 -10 -8 -24 -14 -31 -14 -16 0 -74 -67 -74 -85 0 -39 -53 -27 -76 17 -21 40 -12 69 31 107 43 37 85 40 135 10z m90 -45 c0 -3 -7 -37 -15 -77 -9 -40 -18 -82 -21 -94 -4 -20 2 -24 41 -34 25 -6 45 -15 45 -20 0 -4 -15 -41 -34 -82 -34 -76 -58 -106 -50 -65 2 13 -3 3 -12 -22 -10 -25 -20 -47 -24 -50 -3 -3 -12 -20 -19 -38 -23 -56 -31 -46 -27 30 3 40 3 60 0 43 -12 -79 -16 -95 -23 -95 -7 0 -17 157 -24 377 -2 49 17 74 83 109 43 22 80 31 80 18z m194 -37 c21 -31 5 -141 -41 -277 -38 -115 -49 -133 -63 -110 -5 8 -10 10 -10 4 0 -7 -11 -9 -25 -6 -30 5 -30 6 -6 46 22 37 65 165 58 172 -3 3 -15 -25 -27 -63 -25 -76 -80 -183 -106 -204 -20 -16 -19 -14 22 66 56 108 87 195 74 210 -6 8 -17 12 -25 9 -7 -3 -16 0 -20 5 -3 6 -10 9 -15 6 -17 -11 -22 17 -10 64 11 48 12 49 55 53 34 4 76 20 122 47 2 0 9 -9 17 -22z m523 -71 c18 -9 48 -16 68 -16 41 0 44 -11 18 -80 -12 -33 -18 -95 -22 -235 l-6 -190 -13 75 c-7 41 -17 84 -22 95 -8 19 -9 19 -9 -2 -1 -12 6 -57 14 -100 19 -100 19 -114 -1 -88 -26 35 -52 139 -69 280 -15 123 -33 208 -34 165 -1 -27 29 -272 39 -315 12 -53 44 -129 71 -167 34 -47 14 -43 -26 6 -49 60 -79 158 -104 342 -12 82 -28 173 -37 201 -14 45 -15 55 -3 69 27 33 52 34 79 4 14 -15 39 -35 57 -44z m-1693 -218 c-5 -8 -2 -9 10 -5 35 14 241 -111 349 -213 79 -73 82 -93 5 -28 -62 53 -182 140 -153 111 11 -11 66 -59 123 -107 63 -54 102 -95 102 -107 0 -10 -3 -19 -6 -19 -10 0 -82 59 -169 138 -44 40 -126 107 -182 150 -64 49 -97 80 -90 84 17 11 19 10 11 -4z m139 -182 c81 -79 147 -141 147 -137 0 3 -44 50 -97 105 -54 54 -91 95 -83 91 28 -15 124 -93 205 -165 44 -39 92 -79 108 -88 15 -9 27 -24 27 -34 0 -18 -2 -18 -32 -2 -18 9 -52 32 -75 51 -24 19 -43 31 -43 26 0 -8 58 -58 94 -81 20 -12 20 -13 -4 -7 -46 12 -157 95 -232 173 -79 84 -183 212 -171 212 5 0 74 -65 156 -144z m-524 32 c74 -68 150 -164 256 -322 77 -116 112 -159 158 -195 60 -46 64 -65 7 -36 -56 29 -112 88 -183 195 -39 58 -117 164 -175 235 -104 131 -128 165 -116 165 4 0 28 -19 53 -42z m880 -101 c17 -48 35 -97 41 -107 18 -34 -7 -22 -29 13 -11 18 -29 42 -41 52 -17 15 -20 30 -20 89 1 82 5 78 49 -47z m-636 -142 c80 -118 131 -176 255 -288 78 -70 59 -74 -35 -8 -85 60 -126 106 -198 225 -31 50 -81 127 -112 171 -44 62 -49 73 -24 50 18 -16 69 -84 114 -150z m79 -35 c45 -58 108 -136 141 -173 33 -37 57 -71 54 -74 -12 -11 -195 184 -251 267 -32 47 -74 108 -94 135 l-35 50 52 -50 c29 -27 89 -97 133 -155z m-207 67 c25 -34 81 -111 123 -172 91 -129 137 -167 259 -212 92 -34 87 -43 -10 -18 -167 43 -266 139 -400 386 -68 125 -59 131 28 16z m771 -38 l29 -31 -32 16 c-18 9 -33 23 -33 31 0 20 2 19 36 -16z m-1 -29 c3 -5 -1 -10 -9 -10 -9 0 -16 5 -16 10 0 6 4 10 9 10 6 0 13 -4 16 -10z m81 -65 c6 -2 35 -47 64 -101 60 -111 76 -136 245 -394 193 -295 197 -303 107 -219 -32 30 -97 89 -144 132 -99 89 -187 199 -252 319 -52 97 -106 227 -106 258 0 19 4 20 38 15 20 -4 42 -8 48 -10z m953 -170 c1 32 4 36 12 23 24 -42 121 -460 155 -673 16 -95 31 -434 20 -424 -4 4 -13 67 -21 140 -14 133 -47 308 -85 444 -25 92 -26 56 -1 -43 34 -135 69 -334 81 -456 6 -65 9 -120 7 -123 -7 -6 -46 141 -52 197 -3 30 -21 129 -40 220 -19 91 -43 208 -54 260 -11 52 -20 87 -20 77 -1 -21 62 -366 84 -459 16 -68 15 -80 -3 -45 -38 73 -115 406 -132 571 -10 101 -12 231 -3 208 11 -29 23 4 23 66 0 103 14 133 21 47 4 -46 6 -56 8 -30z m-360 -275 c95 -226 136 -349 187 -554 38 -158 40 -166 20 -146 -8 8 -21 47 -30 85 -13 57 -14 61 -10 20 8 -68 -5 -53 -61 71 -45 98 -54 110 -35 45 15 -54 -4 -23 -33 54 -26 67 -118 444 -116 475 0 8 5 -1 10 -20 17 -60 31 -90 41 -84 5 3 6 -6 3 -23 -5 -26 -5 -26 5 -5 7 18 6 31 -6 55 -22 41 -74 196 -74 216 1 21 50 -73 99 -189z m-1119 -98 c271 -182 374 -281 517 -497 86 -130 85 -130 -22 -15 -172 184 -317 321 -465 440 -24 19 -62 50 -84 68 -132 105 -195 159 -206 176 -8 13 1 9 26 -11 22 -16 127 -89 234 -161z m-229 118 c10 0 19 -3 21 -8 2 -4 35 -32 73 -62 194 -152 315 -258 463 -408 90 -90 161 -166 158 -169 -9 -10 -432 342 -505 421 -14 14 -29 26 -34 26 -9 0 81 -86 217 -209 39 -34 133 -113 210 -176 137 -110 219 -185 201 -185 -4 0 0 -9 10 -20 28 -30 11 -25 -89 31 -182 102 -393 257 -507 373 -68 68 -266 356 -246 356 3 0 31 -33 63 -72 197 -247 454 -491 574 -547 21 -10 22 -9 7 1 -181 125 -280 216 -443 405 -110 127 -139 167 -91 127 l22 -19 -18 22 c-12 13 -25 19 -35 16 -11 -5 -14 -2 -9 10 4 10 2 16 -5 14 -6 -1 -13 4 -16 12 -3 10 0 11 9 5 12 -7 12 -5 0 9 -7 9 -16 15 -20 13 -3 -2 -17 11 -30 28 -14 17 -18 25 -11 19 8 -7 22 -13 31 -13z m896 -282 c162 -203 260 -408 318 -666 20 -87 14 -108 -7 -25 -8 32 -19 57 -25 56 -5 -1 -23 29 -39 67 -16 38 -31 65 -32 60 -8 -24 -148 207 -212 348 -23 51 -40 97 -38 103 2 6 21 -18 42 -53 116 -194 146 -242 146 -234 0 5 -21 45 -46 88 -25 44 -43 82 -41 84 3 3 25 -23 51 -57 25 -33 46 -56 46 -51 0 6 -15 30 -33 54 -139 182 -197 266 -197 284 0 16 23 -4 67 -58z m73 -320 c17 -29 54 -89 81 -133 87 -139 156 -294 97 -219 -68 86 -188 302 -212 382 -12 37 2 25 34 -30z m799 -1093 c-1 -39 -2 -39 -9 -10 -4 17 -8 41 -9 55 0 20 1 22 9 10 5 -8 9 -33 9 -55z" fill="#38405a"/>
    <path d="M6292 9340 c0 -19 3 -55 7 -80 8 -42 9 -42 9 -10 0 19 -3 55 -7 80 -8 42 -9 42 -9 10z" fill="#38405a"/>
    <path d="M6242 9270 c0 -19 2 -27 5 -17 2 9 2 25 0 35 -3 9 -5 1 -5 -18z" fill="#38405a"/>
    <path d="M6252 9200 c0 -19 2 -27 5 -17 2 9 2 25 0 35 -3 9 -5 1 -5 -18z" fill="#38405a"/>
    <path d="M6313 9175 c0 -22 2 -30 4 -17 2 12 2 30 0 40 -3 9 -5 -1 -4 -23z" fill="#38405a"/>
    <path d="M6382 9160 c0 -14 2 -19 5 -12 2 6 2 18 0 25 -3 6 -5 1 -5 -13z" fill="#38405a"/>
    <path d="M6262 9140 c0 -14 2 -19 5 -12 2 6 2 18 0 25 -3 6 -5 1 -5 -13z" fill="#38405a"/>
    <path d="M6322 9080 c0 -14 2 -19 5 -12 2 6 2 18 0 25 -3 6 -5 1 -5 -13z" fill="#38405a"/>
    <path d="M6275 9070 c3 -5 8 -10 11 -10 2 0 4 5 4 10 0 6 -5 10 -11 10 -5 0 -7 -4 -4 -10z" fill="#38405a"/>
    <path d="M6292 9020 c0 -14 2 -19 5 -12 2 6 2 18 0 25 -3 6 -5 1 -5 -13z" fill="#38405a"/>
    <path d="M6412 9020 c0 -14 2 -19 5 -12 2 6 2 18 0 25 -3 6 -5 1 -5 -13z" fill="#38405a"/>
    <path d="M6422 8955 c0 -16 2 -22 5 -12 2 9 2 23 0 30 -3 6 -5 -1 -5 -18z" fill="#38405a"/>
    <path d="M6432 8900 c0 -14 2 -19 5 -12 2 6 2 18 0 25 -3 6 -5 1 -5 -13z" fill="#38405a"/>
    <path d="M6442 8850 c0 -14 2 -19 5 -12 2 6 2 18 0 25 -3 6 -5 1 -5 -13z" fill="#38405a"/>
    <path d="M6451 8805 c1 -19 18 -51 18 -35 0 8 -4 22 -9 30 -5 8 -9 11 -9 5z" fill="#38405a"/>
    <path d="M7071 8754 c0 -11 3 -14 6 -6 3 7 2 16 -1 19 -3 4 -6 -2 -5 -13z" fill="#38405a"/>
    <path d="M7031 8634 c-7 -25 -10 -48 -8 -51 3 -2 10 17 16 43 7 25 10 48 8 51 -3 2 -10 -17 -16 -43z" fill="#38405a"/>
    <path d="M6970 8649 c-7 -11 -10 -23 -7 -25 2 -2 9 7 15 21 14 30 7 33 -8 4z" fill="#38405a"/>
    <path d="M6846 8585 c-9 -26 -7 -32 5 -12 6 10 9 21 6 23 -2 3 -7 -2 -11 -11z" fill="#38405a"/>
    <path d="M6897 8493 c-15 -37 -23 -62 -18 -57 12 11 53 115 48 120 -2 2 -16 -26 -30 -63z" fill="#38405a"/>
    <path d="M6786 8475 c-9 -26 -7 -32 5 -12 6 10 9 21 6 23 -2 3 -7 -2 -11 -11z" fill="#38405a"/>
    <path d="M6951 8423 c-10 -26 -10 -27 4 -9 8 11 15 23 15 28 0 15 -7 8 -19 -19z" fill="#38405a"/>
    <path d="M6852 8395 c-17 -37 -14 -45 4 -12 9 16 14 31 11 33 -2 2 -9 -7 -15 -21z" fill="#38405a"/>
    <path d="M6907 8345 c-9 -19 -15 -35 -12 -35 7 0 37 61 33 66 -3 2 -12 -12 -21 -31z" fill="#38405a"/>
    <path d="M6862 8273 c-30 -44 -36 -57 -25 -50 12 7 55 77 48 77 -2 0 -12 -12 -23 -27z" fill="#38405a"/>
    <path d="M6790 8170 c-6 -11 -8 -20 -6 -20 3 0 10 9 16 20 6 11 8 20 6 20 -3 0 -10 -9 -16 -20z" fill="#38405a"/>
    <path d="M5650 8780 c6 -11 13 -20 16 -20 2 0 0 9 -6 20 -6 11 -13 20 -16 20 -2 0 0 -9 6 -20z" fill="#38405a"/>
    <path d="M5640 8694 c0 -6 7 -19 16 -30 14 -18 14 -18 3 6 -14 31 -19 36 -19 24z" fill="#38405a"/>
    <path d="M5685 8560 c21 -22 41 -40 44 -40 3 0 -13 18 -34 40 -21 22 -41 40 -44 40 -3 0 13 -18 34 -40z" fill="#38405a"/>
    <path d="M5825 8576 c10 -14 19 -26 22 -26 7 0 -17 39 -28 46 -6 3 -3 -5 6 -20z" fill="#38405a"/>
    <path d="M5795 8450 c47 -55 86 -92 91 -87 2 1 -27 32 -63 68 -47 45 -56 51 -28 19z" fill="#38405a"/>
    <path d="M5462 8590 c7 -11 17 -20 22 -20 5 0 1 9 -9 20 -10 11 -20 20 -22 20 -2 0 2 -9 9 -20z" fill="#38405a"/>
    <path d="M5500 8547 c0 -2 15 -14 33 -27 l32 -23 -24 26 c-21 23 -41 35 -41 24z" fill="#38405a"/>
    <path d="M5459 8527 c6 -8 28 -26 49 -39 100 -67 154 -100 156 -96 2 1 -46 36 -107 76 -60 40 -105 66 -98 59z" fill="#38405a"/>
    <path d="M5570 8526 c0 -2 8 -10 18 -17 15 -13 16 -12 3 4 -13 16 -21 21 -21 13z" fill="#38405a"/>
    <path d="M5603 8470 c10 -8 34 -28 52 -43 20 -16 39 -25 46 -21 7 4 9 3 6 -3 -4 -6 0 -16 8 -23 10 -9 15 -9 15 -1 0 6 5 11 11 11 6 0 9 -7 5 -15 -8 -21 27 -37 56 -26 13 6 17 10 9 10 -16 1 -146 85 -156 101 -3 5 -15 15 -27 21 -15 8 -19 8 -14 0 8 -13 -5 -15 -20 -3 -5 4 -1 0 9 -8z m42 -10 c3 -6 -1 -7 -9 -4 -18 7 -21 14 -7 14 6 0 13 -4 16 -10z m135 -100 c8 -5 11 -10 5 -10 -5 0 -17 5 -25 10 -8 5 -10 10 -5 10 6 0 17 -5 25 -10z" fill="#38405a"/>
    <path d="M5678 8293 c7 -3 16 -2 19 1 4 3 -2 6 -13 5 -11 0 -14 -3 -6 -6z" fill="#38405a"/>
    <path d="M6996 7835 c-3 -9 -6 -22 -5 -28 0 -7 5 -1 10 12 5 13 8 26 5 28 -2 2 -6 -3 -10 -12z" fill="#38405a"/>
    <path d="M6992 7760 c0 -14 2 -19 5 -12 2 6 2 18 0 25 -3 6 -5 1 -5 -13z" fill="#38405a"/>
    <path d="M6963 7660 c0 -30 2 -43 4 -27 2 15 2 39 0 55 -2 15 -4 2 -4 -28z" fill="#38405a"/>
    <path d="M7251 7834 c0 -11 3 -14 6 -6 3 7 2 16 -1 19 -3 4 -6 -2 -5 -13z" fill="#38405a"/>
    <path d="M7191 7794 c0 -11 3 -14 6 -6 3 7 2 16 -1 19 -3 4 -6 -2 -5 -13z" fill="#38405a"/>
    <path d="M7219 7690 c-15 -58 -29 -114 -33 -125 -4 -12 -1 -9 8 6 18 31 58 185 54 208 -2 9 -15 -31 -29 -89z" fill="#38405a"/>
    <path d="M7792 7625 c0 -16 2 -22 5 -12 2 9 2 23 0 30 -3 6 -5 -1 -5 -18z" fill="#38405a"/>
    <path d="M7802 7550 c0 -19 2 -27 5 -17 2 9 2 25 0 35 -3 9 -5 1 -5 -18z" fill="#38405a"/>
    <path d="M6141 7601 c13 -10 40 -26 59 -35 35 -16 31 -13 -37 32 -41 27 -55 29 -22 3z" fill="#38405a"/>
    <path d="M7642 6895 c0 -16 2 -22 5 -12 2 9 2 23 0 30 -3 6 -5 -1 -5 -18z" fill="#38405a"/>
    <path d="M7651 6835 c1 -19 18 -51 18 -35 0 8 -4 22 -9 30 -5 8 -9 11 -9 5z" fill="#38405a"/>
    <path d="M7673 6735 c0 -22 2 -30 4 -17 2 12 2 30 0 40 -3 9 -5 -1 -4 -23z" fill="#38405a"/>
    <path d="M7622 6720 c0 -14 2 -19 5 -12 2 6 2 18 0 25 -3 6 -5 1 -5 -13z" fill="#38405a"/>
    <path d="M7683 6655 c0 -22 2 -30 4 -17 2 12 2 30 0 40 -3 9 -5 -1 -4 -23z" fill="#38405a"/>
    <path d="M7632 6655 c0 -16 2 -22 5 -12 2 9 2 23 0 30 -3 6 -5 -1 -5 -18z" fill="#38405a"/>
    <path d="M7692 6580 c0 -19 2 -27 5 -17 2 9 2 25 0 35 -3 9 -5 1 -5 -18z" fill="#38405a"/>
    <path d="M7261 6554 c0 -11 3 -14 6 -6 3 7 2 16 -1 19 -3 4 -6 -2 -5 -13z" fill="#38405a"/>
    <path d="M7311 6364 c0 -11 3 -14 6 -6 3 7 2 16 -1 19 -3 4 -6 -2 -5 -13z" fill="#38405a"/>
    <path d="M7371 6365 c1 -19 18 -51 18 -35 0 8 -4 22 -9 30 -5 8 -9 11 -9 5z" fill="#38405a"/>
    <path d="M7321 6324 c0 -11 3 -14 6 -6 3 7 2 16 -1 19 -3 4 -6 -2 -5 -13z" fill="#38405a"/>
    <path d="M7391 6294 c0 -11 3 -14 6 -6 3 7 2 16 -1 19 -3 4 -6 -2 -5 -13z" fill="#38405a"/>
    <path d="M7331 6284 c0 -11 3 -14 6 -6 3 7 2 16 -1 19 -3 4 -6 -2 -5 -13z" fill="#38405a"/>
    <path d="M7431 6164 c0 -11 3 -14 6 -6 3 7 2 16 -1 19 -3 4 -6 -2 -5 -13z" fill="#38405a"/>
    <path d="M6059 6546 c27 -29 33 -32 25 -13 -2 7 -14 19 -27 26 -21 13 -21 12 2 -13z" fill="#38405a"/>
    <path d="M6590 6026 c0 -3 9 -10 20 -16 11 -6 20 -8 20 -6 0 3 -9 10 -20 16 -11 6 -20 8 -20 6z" fill="#38405a"/>
    <path d="M6707 5949 c7 -7 15 -10 18 -7 3 3 -2 9 -12 12 -14 6 -15 5 -6 -5z" fill="#38405a"/>
    <path d="M7010 6105 c0 -5 5 -17 10 -25 5 -8 10 -10 10 -5 0 6 -5 17 -10 25 -5 8 -10 11 -10 5z" fill="#38405a"/>
    <path d="M7081 5914 c0 -11 3 -14 6 -6 3 7 2 16 -1 19 -3 4 -6 -2 -5 -13z" fill="#38405a"/>
    <path d="M7091 5874 c0 -11 3 -14 6 -6 3 7 2 16 -1 19 -3 4 -6 -2 -5 -13z" fill="#38405a"/>
    <path d="M7102 5830 c0 -14 2 -19 5 -12 2 6 2 18 0 25 -3 6 -5 1 -5 -13z" fill="#38405a"/>
    <path d="M6853 7670 c0 -25 2 -35 4 -22 2 12 2 32 0 45 -2 12 -4 2 -4 -23z" fill="#38405a"/>
    <path d="M7982 7650 c0 -19 2 -27 5 -17 2 9 2 25 0 35 -3 9 -5 1 -5 -18z" fill="#38405a"/>
    <path d="M7972 7585 c0 -16 2 -22 5 -12 2 9 2 23 0 30 -3 6 -5 -1 -5 -18z" fill="#38405a"/>
    <path d="M7957 7530 c-4 -14 -6 -36 -6 -50 1 -22 2 -20 10 8 6 19 9 41 7 50 -3 12 -6 10 -11 -8z" fill="#38405a"/>
    <path d="M7942 7420 c0 -19 2 -27 5 -17 2 9 2 25 0 35 -3 9 -5 1 -5 -18z" fill="#38405a"/>
    <path d="M7986 7415 c-3 -9 -6 -22 -5 -28 0 -7 5 -1 10 12 5 13 8 26 5 28 -2 2 -6 -3 -10 -12z" fill="#38405a"/>
    <path d="M1860 6136 c0 -20 -4 -36 -10 -36 -5 0 -10 -14 -10 -30 0 -36 -41 -243 -49 -250 -4 -3 -17 -45 -30 -95 -12 -49 -26 -92 -31 -95 -4 -3 -18 -45 -30 -95 -12 -49 -26 -92 -30 -95 -14 -9 -50 -219 -50 -293 0 -81 38 -298 54 -309 13 -9 10 -409 -2 -417 -5 -3 -12 -53 -16 -111 -6 -100 -32 -259 -35 -213 0 12 -5 23 -9 25 -4 2 -18 46 -31 98 -13 52 -26 97 -30 100 -11 8 -44 121 -44 150 1 14 6 43 12 65 16 59 13 169 -5 244 -9 36 -20 68 -24 71 -4 3 -17 27 -29 55 -12 27 -25 52 -30 55 -5 3 -18 24 -30 48 -12 23 -25 42 -30 42 -5 0 -11 8 -14 18 -9 28 -41 76 -59 90 -10 7 -18 19 -18 27 0 8 -8 20 -18 27 -10 7 -28 30 -41 51 -12 20 -26 37 -30 37 -3 0 -15 17 -26 38 -11 20 -29 47 -41 59 -11 12 -27 40 -34 63 -7 22 -17 40 -21 40 -5 0 -13 18 -19 40 -11 40 -30 63 -30 36 0 -9 -4 -16 -10 -16 -6 0 -10 -30 -10 -70 0 -38 4 -70 8 -70 4 0 13 -48 20 -107 16 -133 33 -223 44 -223 4 0 8 -8 8 -18 0 -30 38 -164 48 -171 5 -3 13 -22 17 -41 8 -35 35 -100 46 -110 3 -3 16 -27 28 -53 47 -97 173 -217 228 -217 7 0 13 -4 13 -8 0 -5 8 -17 18 -28 16 -18 62 -144 62 -172 0 -7 4 -12 9 -12 10 0 51 -186 51 -231 0 -32 -39 -180 -50 -189 -3 -3 -17 -39 -29 -80 -13 -41 -29 -80 -36 -87 -7 -7 -21 -37 -30 -68 -10 -30 -21 -55 -24 -55 -3 0 -17 -24 -31 -52 -13 -29 -27 -55 -31 -58 -3 -3 -17 -25 -29 -50 -12 -25 -26 -47 -30 -50 -4 -3 -18 -24 -30 -47 -12 -24 -26 -43 -30 -43 -4 0 -15 -15 -23 -33 -9 -18 -26 -44 -38 -57 l-21 -25 7 25 c4 14 11 27 15 30 18 13 32 155 37 383 5 217 8 249 22 254 44 14 77 34 89 52 7 12 19 21 27 21 8 0 22 12 32 28 9 15 24 33 32 40 13 11 16 43 16 204 l0 191 -42 16 c-25 9 -43 22 -43 31 0 8 -12 28 -26 44 -21 24 -35 29 -88 33 -46 4 -66 2 -77 -9 -23 -23 -55 -38 -83 -38 -21 0 -25 -5 -28 -37 -3 -36 -5 -38 -33 -35 -41 4 -87 22 -102 40 -10 12 -14 12 -26 1 -25 -25 -37 -57 -37 -95 0 -46 20 -167 29 -174 4 -3 17 -40 31 -82 13 -43 27 -78 31 -78 4 0 11 -9 14 -21 6 -16 12 -19 36 -14 26 6 36 0 89 -53 37 -37 72 -63 91 -67 l31 -7 -4 -275 c-2 -174 -7 -277 -14 -281 -5 -4 -20 -46 -31 -95 -12 -48 -29 -94 -37 -103 -9 -8 -16 -21 -16 -28 0 -7 -11 -25 -24 -39 -13 -14 -33 -46 -46 -71 -12 -25 -25 -46 -29 -46 -3 0 -17 -24 -31 -52 -13 -29 -27 -55 -31 -58 -4 -3 -17 -30 -30 -60 -12 -30 -27 -58 -31 -61 -5 -3 -18 -32 -29 -65 -12 -32 -24 -61 -28 -64 -4 -3 -18 -40 -31 -82 -13 -43 -27 -78 -30 -78 -4 0 -17 -46 -30 -102 -13 -57 -27 -105 -31 -108 -9 -6 -49 -255 -49 -303 0 -20 -4 -37 -9 -37 -5 0 -12 -12 -16 -28 -3 -15 -24 -45 -47 -67 -29 -29 -39 -34 -35 -20 3 11 11 56 18 100 7 44 15 82 19 85 7 6 50 336 50 388 0 17 5 32 10 32 6 0 10 9 10 19 0 22 38 91 50 91 4 0 10 8 13 18 8 25 40 76 53 84 6 4 19 29 29 55 10 26 24 53 31 60 6 7 20 38 30 70 10 32 21 60 24 63 4 3 17 61 29 130 12 68 25 127 29 130 5 3 18 61 31 130 13 69 27 128 33 131 6 4 12 36 15 73 5 55 3 66 -10 66 -9 0 -26 -21 -39 -47 -13 -27 -28 -53 -34 -59 -6 -7 -19 -34 -29 -60 -10 -27 -21 -51 -25 -54 -4 -3 -17 -35 -29 -72 -12 -37 -25 -68 -29 -70 -4 -2 -18 -39 -32 -83 -13 -44 -29 -85 -35 -91 -6 -6 -20 -47 -30 -90 -11 -44 -22 -81 -26 -84 -3 -3 -9 -12 -12 -20 -4 -8 -4 26 0 75 3 50 9 92 13 95 4 3 10 37 14 75 11 118 39 310 46 315 6 5 31 159 46 278 4 28 10 52 14 52 4 0 18 72 31 160 13 88 27 160 31 160 4 0 8 14 8 30 0 70 -18 21 -40 -107 -13 -76 -26 -140 -30 -143 -7 -6 -24 -98 -42 -220 -6 -47 -15 -87 -18 -90 -8 -6 -50 -290 -50 -337 0 -17 -4 -33 -9 -35 -8 -3 -51 -388 -51 -461 0 -20 -4 -37 -10 -37 -5 0 -10 -15 -10 -32 0 -58 -43 -433 -50 -438 -4 -3 -10 -30 -14 -60 -16 -132 -41 -270 -48 -270 -4 0 -8 -11 -8 -26 0 -36 -38 -114 -55 -114 -10 0 -15 10 -15 33 0 47 -32 261 -40 267 -4 3 -17 58 -31 123 -13 64 -27 117 -31 117 -5 0 -8 14 -8 30 0 17 4 30 9 30 4 0 11 21 15 46 10 73 39 184 48 184 4 0 8 7 8 16 0 22 43 168 51 174 4 3 17 48 30 100 12 52 26 97 30 100 9 6 49 241 49 286 0 19 5 34 10 34 6 0 10 60 10 160 0 100 -4 160 -10 160 -5 0 -10 12 -10 28 -1 15 -7 54 -14 87 -10 47 -15 56 -21 40 -5 -11 -12 -22 -17 -25 -4 -3 -18 -46 -30 -95 -12 -50 -25 -92 -29 -95 -3 -3 -16 -61 -28 -130 -13 -69 -26 -127 -31 -130 -4 -3 -18 -63 -31 -135 -13 -71 -26 -132 -30 -135 -11 -9 -31 -201 -39 -375 -4 -93 -8 -156 -8 -138 -1 17 -6 33 -11 35 -15 5 -31 174 -31 328 0 184 20 493 33 501 5 4 9 101 10 238 l0 231 25 16 c32 21 71 65 72 82 0 6 4 12 8 12 12 0 28 37 42 103 7 31 16 57 20 57 4 0 12 53 19 118 18 181 32 266 45 275 8 6 8 10 -1 14 -7 2 -13 11 -13 18 0 19 -28 33 -73 38 -27 3 -47 16 -84 54 -66 69 -123 95 -123 58 0 -8 -4 -15 -8 -15 -4 0 -16 -23 -26 -51 -10 -28 -24 -53 -31 -56 -7 -2 -15 -14 -18 -25 -7 -24 -27 -15 -27 13 0 31 -30 22 -37 -11 -5 -28 -8 -30 -52 -30 -25 0 -42 -4 -36 -8 6 -4 15 -16 21 -26 6 -11 17 -21 25 -23 8 -3 7 0 -3 7 -26 16 -22 30 7 30 21 0 25 -5 25 -31 0 -16 -4 -28 -9 -25 -5 4 -7 -3 -4 -13 4 -14 -4 -23 -31 -36 l-36 -17 2 -79 c0 -50 6 -83 14 -90 7 -5 15 -28 19 -50 4 -21 10 -39 15 -39 4 0 18 -25 31 -56 12 -31 33 -68 46 -82 13 -14 23 -31 23 -38 0 -7 7 -17 16 -22 15 -8 15 -10 -1 -15 -9 -4 -26 -2 -38 5 -30 15 -89 77 -106 111 -8 15 -16 25 -18 23 -7 -7 17 -52 46 -86 30 -34 31 -35 9 -38 -14 -3 -29 4 -40 18 -13 16 -18 18 -18 7 0 -8 6 -18 13 -20 9 -4 9 -6 0 -6 -7 -1 -13 -5 -13 -11 0 -5 20 -10 45 -10 25 0 45 -4 45 -10 0 -5 9 -10 19 -10 11 0 40 -9 66 -20 26 -11 58 -20 72 -20 l26 0 -8 -297 c-4 -164 -11 -426 -14 -583 -4 -157 -8 -275 -9 -262 -1 12 -5 22 -10 22 -4 0 -18 39 -31 88 -13 48 -27 89 -31 92 -6 5 -50 139 -50 153 0 5 -6 14 -13 21 -7 7 -21 46 -31 87 -11 41 -23 76 -27 79 -4 3 -16 34 -27 70 -14 42 -21 56 -21 39 -1 -29 37 -161 48 -169 3 -3 17 -41 29 -85 13 -44 28 -81 33 -83 5 -2 9 -9 9 -15 0 -17 43 -151 50 -157 4 -3 17 -43 30 -90 13 -47 26 -87 30 -90 9 -8 31 -102 25 -108 -3 -3 -5 1 -5 10 0 8 -9 25 -20 38 -11 13 -20 18 -20 12 0 -6 7 -17 15 -25 7 -8 17 -27 21 -42 4 -15 9 -22 13 -17 3 6 7 -13 8 -41 l2 -52 -16 32 c-8 18 -19 33 -23 33 -5 0 -11 14 -15 30 -4 17 -11 27 -16 24 -6 -3 -13 3 -16 15 -3 12 -9 21 -13 21 -4 0 -17 20 -30 45 -13 25 -26 45 -30 45 -4 0 -17 22 -30 50 -13 27 -27 50 -32 50 -4 0 -16 19 -25 42 -9 23 -18 37 -21 30 -4 -13 40 -112 50 -112 5 0 17 -20 29 -45 12 -25 25 -45 29 -45 5 0 19 -20 31 -45 12 -25 26 -45 29 -45 4 0 17 -20 30 -45 13 -25 27 -45 32 -45 5 0 13 -10 18 -22 13 -29 31 -57 51 -78 9 -10 22 -47 29 -84 7 -36 16 -66 20 -66 4 0 17 -60 30 -133 13 -72 27 -134 30 -137 4 -3 13 -55 19 -117 12 -121 8 -143 -36 -192 -13 -13 -23 -30 -23 -37 0 -7 -8 -21 -18 -31 -10 -10 -27 -38 -36 -62 -10 -25 -23 -50 -30 -55 -7 -6 -21 -31 -31 -56 -11 -25 -22 -47 -25 -50 -4 -3 -17 -33 -29 -67 -13 -35 -27 -63 -31 -63 -4 0 -10 -10 -13 -22 -9 -37 -38 -112 -46 -118 -12 -8 -35 -90 -27 -97 4 -4 9 3 13 15 3 12 9 22 13 22 9 0 50 96 50 116 0 8 4 14 8 14 5 0 19 26 32 58 13 31 26 59 30 62 3 3 17 33 29 68 13 34 26 62 30 62 3 0 17 24 30 53 13 28 27 54 31 57 3 3 17 28 30 55 13 28 32 59 42 69 18 19 18 18 18 -31 0 -67 -19 -206 -30 -213 -4 -3 -11 -21 -14 -40 -9 -44 -36 -111 -53 -128 -7 -7 -13 -20 -13 -28 0 -8 -11 -26 -24 -39 -26 -26 -66 -80 -66 -89 0 -18 109 93 123 125 4 8 4 -4 0 -26 -3 -22 -9 -42 -13 -45 -3 -3 -17 -45 -30 -95 -12 -49 -26 -92 -30 -95 -4 -3 -18 -30 -31 -60 -12 -30 -27 -58 -32 -61 -5 -3 -2 -9 6 -12 11 -4 21 6 33 31 9 20 20 39 24 42 3 3 17 37 31 75 13 39 27 72 31 75 3 3 17 50 29 105 13 55 26 102 29 105 4 3 17 68 30 145 13 77 27 142 30 145 4 3 17 61 30 130 13 69 27 127 32 128 4 2 8 12 8 22 0 9 7 23 15 30 8 7 15 17 15 22 0 5 16 25 36 45 l36 35 -7 -58 c-14 -139 -38 -299 -45 -304 -4 -3 -17 -69 -30 -147 -12 -79 -27 -143 -31 -143 -5 0 -9 -10 -9 -23 0 -20 -19 -104 -36 -159 -3 -12 0 -18 9 -18 10 0 18 14 22 40 4 22 10 40 14 40 5 0 19 64 31 143 13 78 27 144 30 147 9 6 50 282 50 334 0 20 4 36 9 36 4 0 11 34 14 76 5 74 7 76 54 124 26 27 52 50 56 50 5 0 21 12 36 28 15 15 42 38 60 52 18 14 43 34 55 45 13 11 38 29 57 39 19 11 45 30 58 43 13 13 30 23 37 23 7 0 19 8 26 18 7 9 23 23 36 29 12 7 32 19 44 25 13 7 29 21 36 31 7 9 19 17 27 17 8 0 20 8 27 18 7 10 30 28 51 41 20 12 37 26 37 29 0 4 27 18 60 30 33 13 60 27 60 31 0 4 23 15 50 25 28 10 54 23 58 30 4 6 30 22 57 35 28 13 54 30 58 38 4 7 14 13 21 13 7 0 24 10 38 23 32 29 85 67 94 67 3 0 15 11 26 25 11 14 24 25 29 25 10 0 135 126 179 180 14 17 34 41 45 54 11 12 31 42 44 67 14 24 27 46 31 49 4 3 17 25 31 50 13 25 30 51 37 58 7 8 19 30 28 50 8 20 18 39 23 42 5 3 18 25 31 49 12 25 29 51 36 59 18 18 18 32 -1 32 -15 0 -21 -4 -84 -60 -19 -16 -37 -30 -41 -30 -4 0 -18 -10 -32 -22 -13 -13 -44 -34 -69 -47 -24 -14 -48 -30 -52 -38 -4 -7 -14 -13 -21 -13 -7 0 -24 -10 -38 -22 -14 -13 -40 -32 -59 -42 -19 -11 -45 -30 -58 -43 -13 -13 -29 -23 -35 -23 -7 0 -21 -8 -32 -18 -10 -10 -35 -29 -54 -42 -73 -51 -135 -108 -197 -178 -18 -21 -42 -49 -55 -63 -29 -33 -45 -58 -58 -86 -5 -13 -13 -23 -18 -23 -5 0 -19 -20 -32 -45 -13 -25 -26 -45 -30 -45 -3 0 -17 -20 -29 -45 -12 -25 -26 -45 -31 -45 -4 0 -15 -16 -25 -36 -9 -19 -23 -38 -31 -41 -8 -3 -14 -9 -14 -13 0 -23 -50 -79 -85 -96 -21 -10 -48 -29 -59 -42 -11 -12 -24 -22 -30 -22 -6 0 -24 -11 -40 -25 -34 -29 -37 -30 -30 -10 4 8 9 15 13 15 3 0 17 17 31 38 14 20 30 41 37 45 7 4 13 14 13 21 0 7 10 24 23 38 13 14 34 51 46 82 13 31 26 56 30 56 4 0 18 30 31 67 13 38 27 70 30 73 4 3 17 39 30 80 13 41 26 77 29 80 4 3 17 43 31 90 13 47 27 87 31 90 4 3 10 27 14 54 8 48 8 48 -16 36 -47 -26 -128 -103 -154 -147 -11 -18 -23 -33 -26 -33 -4 0 -18 -21 -31 -47 -13 -27 -26 -50 -29 -53 -3 -3 -16 -27 -30 -55 -13 -27 -29 -56 -36 -62 -6 -7 -19 -36 -29 -65 -9 -29 -20 -55 -25 -58 -4 -3 -18 -46 -30 -95 -13 -50 -26 -92 -30 -95 -3 -3 -16 -58 -30 -123 -18 -90 -28 -118 -41 -123 -10 -3 -23 -14 -28 -25 -6 -10 -17 -19 -25 -19 -7 0 -22 -11 -32 -23 -10 -13 -23 -26 -29 -28 -15 -5 -101 -77 -132 -109 l-24 -25 5 30 c3 17 11 71 18 120 7 50 15 92 19 95 3 3 16 54 29 115 12 60 26 112 30 115 4 3 18 43 31 90 13 47 27 87 32 90 4 3 17 35 28 70 11 35 24 67 28 70 5 3 19 31 31 63 13 31 26 57 30 57 3 0 17 17 31 37 27 39 99 113 110 113 4 0 27 20 51 45 24 25 47 45 50 45 4 0 27 20 53 45 26 24 60 52 76 62 17 9 30 20 30 24 0 4 21 18 48 30 26 13 52 28 58 34 6 6 39 19 73 30 33 10 61 21 61 25 0 4 37 18 83 30 45 13 85 28 88 33 3 5 52 12 107 17 103 9 182 27 182 41 0 4 16 13 36 19 19 7 40 20 47 31 6 10 17 19 22 19 12 0 95 79 95 90 0 3 14 22 30 40 17 18 30 39 30 46 0 7 8 21 18 31 10 10 27 38 36 63 10 25 21 47 25 50 4 3 18 28 31 55 13 28 30 56 37 63 7 7 13 19 13 25 0 7 10 23 23 37 12 14 34 41 47 60 13 19 32 44 42 54 20 22 24 46 8 46 -5 0 -10 -3 -10 -8 0 -4 -31 -18 -70 -31 -38 -13 -70 -27 -70 -31 0 -4 -12 -13 -27 -20 -34 -17 -46 -27 -150 -128 -46 -44 -83 -84 -83 -90 0 -7 -11 -19 -25 -28 -14 -9 -25 -22 -25 -29 0 -8 -11 -22 -25 -33 -14 -11 -25 -24 -25 -29 0 -6 -9 -18 -20 -28 -11 -10 -20 -22 -20 -28 0 -5 -11 -18 -25 -29 -14 -11 -25 -24 -25 -29 0 -6 -25 -34 -55 -63 -30 -29 -55 -58 -55 -64 0 -7 -5 -12 -11 -12 -7 0 -26 -15 -44 -34 -33 -35 -84 -66 -109 -66 -8 0 -16 -3 -18 -8 -1 -4 -37 -18 -78 -31 -41 -13 -77 -27 -80 -30 -3 -4 -33 -18 -67 -31 -35 -14 -63 -28 -63 -32 0 -8 -54 -38 -67 -38 -4 1 1 9 12 18 22 20 40 46 55 80 5 12 13 22 18 22 4 0 19 25 33 55 13 30 27 55 30 55 4 0 17 26 30 58 12 31 26 59 30 62 4 3 15 36 26 75 20 69 20 70 61 78 23 4 42 12 42 17 0 5 13 11 29 15 16 3 41 17 54 29 14 13 31 26 38 30 36 18 57 34 94 73 45 46 106 118 118 139 4 8 19 26 31 40 36 40 49 56 76 94 14 19 32 42 40 51 27 28 60 69 60 74 0 3 -9 5 -20 5 -11 0 -20 -4 -20 -9 0 -5 -27 -19 -60 -31 -33 -12 -60 -26 -60 -30 0 -4 -27 -18 -60 -30 -33 -12 -60 -26 -60 -29 0 -4 -25 -18 -55 -32 -30 -13 -55 -27 -55 -31 0 -3 -15 -15 -32 -25 -32 -19 -51 -34 -121 -96 l-32 -28 -7 53 c-12 85 -6 99 81 196 12 12 21 26 21 31 0 4 9 16 20 26 11 10 20 22 20 28 0 5 11 18 25 29 14 11 25 25 25 33 0 7 11 20 25 29 14 9 25 22 25 29 0 6 13 27 29 46 16 19 35 46 43 60 7 14 21 35 31 45 9 11 17 25 17 31 0 6 8 20 18 31 23 26 62 82 62 89 0 6 24 34 63 75 15 15 27 33 27 39 0 7 23 11 60 11 33 0 60 -4 60 -10 0 -5 9 -10 20 -10 25 0 130 -39 130 -49 0 -4 23 -15 50 -25 28 -10 57 -24 64 -31 19 -19 113 -45 161 -45 23 0 57 5 75 12 43 14 102 73 120 118 8 19 17 37 20 40 4 3 17 38 29 78 13 39 26 72 29 72 4 0 13 12 19 27 10 20 10 30 1 40 -9 11 -8 21 5 42 9 16 19 53 23 83 6 49 4 57 -17 76 -12 12 -31 22 -41 22 -14 0 -18 8 -18 35 0 25 -5 38 -17 42 -10 4 -22 13 -28 20 -5 7 -39 19 -75 27 -36 9 -66 20 -68 26 -2 5 -10 10 -17 10 -7 0 -18 19 -24 43 -18 70 -32 81 -109 85 l-68 4 -17 -55 c-10 -30 -24 -58 -32 -61 -8 -3 -15 -11 -15 -18 0 -7 -18 -33 -40 -58 -22 -25 -40 -48 -40 -52 0 -4 -16 -22 -35 -39 -19 -18 -35 -36 -35 -42 0 -5 -11 -18 -25 -29 -14 -11 -25 -26 -25 -33 0 -8 -6 -18 -14 -22 -16 -9 -56 -86 -56 -107 0 -8 -5 -16 -10 -18 -6 -2 -15 -41 -22 -88 -7 -53 -17 -91 -27 -100 -9 -8 -27 -31 -41 -50 -13 -19 -35 -46 -47 -60 -13 -14 -23 -30 -23 -37 0 -7 -6 -16 -13 -20 -8 -4 -24 -28 -38 -52 -13 -25 -34 -56 -46 -69 -13 -14 -23 -31 -23 -38 0 -7 -6 -17 -13 -21 -7 -4 -23 -25 -36 -45 -12 -21 -26 -38 -29 -38 -4 0 -18 -17 -32 -37 -23 -34 -41 -56 -88 -108 -10 -11 -27 -35 -37 -52 -11 -18 -23 -33 -27 -33 -5 0 -13 -12 -19 -26 -5 -15 -11 -25 -13 -23 -6 6 27 183 35 189 4 3 10 50 14 105 6 100 21 148 58 189 9 11 17 26 17 33 0 7 9 18 20 25 11 7 20 16 20 21 0 9 34 58 65 93 11 13 30 36 42 51 13 15 36 43 53 62 16 19 30 37 30 41 0 4 10 18 23 32 12 13 33 44 46 69 14 24 28 46 31 49 12 8 40 68 40 84 0 8 7 22 16 30 16 16 54 140 54 176 0 11 4 20 9 20 13 0 22 145 15 247 -9 120 -27 125 -44 12 -7 -44 -18 -86 -24 -92 -6 -7 -22 -45 -35 -84 -13 -40 -27 -73 -31 -73 -4 0 -15 -19 -26 -41 -10 -23 -23 -47 -29 -53 -5 -6 -21 -31 -34 -56 -14 -25 -30 -49 -38 -53 -7 -4 -13 -14 -13 -21 0 -7 -10 -24 -22 -38 -13 -13 -33 -45 -46 -71 -13 -26 -27 -47 -30 -47 -4 0 -18 -24 -32 -52 -13 -29 -27 -55 -31 -58 -10 -8 -49 -101 -49 -116 0 -8 -4 -14 -9 -14 -5 0 -14 -12 -19 -27 -8 -22 -10 -14 -6 37 7 95 14 130 24 130 6 0 10 7 10 15 0 23 43 199 50 205 4 3 17 43 30 90 13 47 27 87 30 90 3 3 17 43 30 90 13 47 27 87 31 90 8 6 49 171 49 198 0 11 5 22 12 24 14 5 16 207 2 216 -5 4 -20 54 -33 111 -12 57 -29 110 -36 117 -7 8 -16 32 -20 54 -9 51 -25 62 -25 16z m53 -137 c5 -4 13 -58 17 -120 5 -77 8 -96 10 -59 l2 55 10 -55 c5 -30 7 -90 4 -133 -6 -80 -33 -208 -46 -217 -4 -3 -10 -16 -13 -30 -11 -53 -41 -145 -48 -150 -4 -3 -17 -43 -29 -90 -13 -47 -26 -87 -30 -90 -4 -3 -10 -12 -13 -20 -4 -8 -4 1 -1 20 4 19 10 37 13 40 4 3 18 48 30 100 13 52 27 97 31 100 4 3 18 64 31 135 13 72 27 132 31 133 10 5 10 62 0 62 -4 0 -18 -62 -31 -137 -12 -76 -26 -140 -30 -143 -4 -3 -18 -48 -30 -100 -13 -52 -26 -97 -30 -100 -9 -6 -51 -179 -51 -209 0 -12 -4 -21 -10 -21 -5 0 -10 -15 -11 -32 0 -18 -4 -42 -9 -53 -10 -21 -10 -20 6 100 3 28 9 52 13 55 4 3 18 55 30 115 13 61 27 112 30 115 11 8 41 157 46 230 4 71 2 62 -21 -80 -8 -52 -19 -97 -23 -100 -8 -5 -51 -177 -51 -204 0 -9 -4 -16 -9 -16 -5 0 -12 -24 -16 -52 -4 -29 -12 -62 -17 -73 -12 -27 -2 192 12 268 6 32 9 64 7 70 -8 24 -37 -204 -37 -287 0 -47 -4 -86 -8 -86 -9 0 -25 80 -37 175 -7 53 17 234 33 244 4 3 19 49 32 101 12 52 26 97 30 100 10 6 50 136 50 161 0 10 4 19 9 19 5 0 12 8 15 18 2 9 2 -1 -1 -23 -3 -22 -9 -42 -14 -45 -4 -3 -10 -28 -12 -55 -2 -28 -2 -38 0 -22 2 15 8 27 14 27 5 0 9 7 9 16 0 26 43 199 51 204 4 3 10 22 14 43 4 21 10 36 13 33 8 -9 -20 -276 -30 -276 -4 0 -8 -18 -8 -40 0 -22 4 -40 8 -40 11 0 42 278 43 385 1 44 4 71 6 60 3 -11 10 -23 16 -26z m-46 -26 c-3 -10 -5 -4 -5 12 0 17 2 24 5 18 2 -7 2 -21 0 -30z m-7 -48 c0 -14 -4 -25 -10 -25 -5 0 -10 -7 -10 -17 0 -9 -2 -14 -5 -12 -7 8 7 79 16 79 5 0 9 -11 9 -25z m-33 -97 c-3 -7 -5 -2 -5 12 0 14 2 19 5 13 2 -7 2 -19 0 -25z m-10 -40 c-3 -8 -6 -5 -6 6 -1 11 2 17 5 13 3 -3 4 -12 1 -19z m367 -365 c-9 -41 -23 -80 -29 -87 -6 -6 -21 -32 -34 -58 -12 -27 -26 -48 -31 -48 -4 0 -15 -16 -25 -36 -9 -20 -19 -34 -21 -31 -6 6 38 97 47 97 4 0 17 26 30 58 13 31 28 62 35 69 6 6 17 39 25 73 7 34 15 56 17 50 2 -6 -4 -45 -14 -87z m-1101 9 c8 -23 40 -76 50 -80 4 -2 16 -21 27 -42 10 -21 26 -40 35 -43 8 -4 15 -13 15 -21 0 -8 10 -23 23 -33 24 -20 41 -45 57 -80 5 -13 14 -23 20 -23 5 0 19 -18 30 -40 11 -22 24 -40 28 -40 4 0 18 -24 31 -52 13 -29 30 -57 36 -63 7 -5 20 -34 30 -62 9 -29 20 -53 25 -53 12 0 33 -156 26 -197 -14 -78 -18 -93 -27 -93 -5 0 -9 30 -9 66 0 64 -34 224 -49 234 -5 3 -11 12 -15 20 -3 8 -3 2 0 -15 3 -16 9 -32 14 -35 12 -8 40 -152 40 -208 0 -73 -29 -92 -71 -47 -13 13 -29 25 -35 25 -14 0 -86 83 -96 111 -4 10 -11 19 -16 19 -5 0 -19 24 -33 53 -13 28 -27 54 -30 57 -3 3 -16 37 -29 75 -13 39 -26 72 -30 75 -7 4 -34 117 -48 195 -2 17 -8 32 -12 35 -9 5 -31 169 -29 210 1 14 6 -4 11 -40 5 -35 13 -67 17 -70 5 -3 11 -14 14 -25 2 -11 3 9 2 45 -2 35 -8 66 -14 68 -12 4 -15 42 -3 42 4 0 19 -25 32 -55 13 -30 28 -55 32 -55 4 0 17 -18 28 -40 11 -22 24 -40 30 -40 5 0 19 -20 31 -45 20 -41 56 -74 42 -39 -3 7 -8 14 -12 14 -5 0 -18 20 -31 45 -13 25 -27 45 -31 45 -4 0 -18 20 -30 45 -12 25 -25 45 -29 45 -4 0 -17 23 -30 50 -13 28 -27 50 -31 50 -3 0 -9 9 -12 19 -6 24 19 17 26 -7z m1537 -2 c0 -5 7 -10 15 -10 42 0 65 -24 85 -88 11 -35 20 -65 20 -67 0 -1 -16 3 -35 9 -31 10 -35 15 -36 46 -1 27 -3 23 -10 -20 -4 -30 -6 -63 -3 -72 3 -10 1 -26 -5 -35 -8 -14 -10 -15 -11 -3 0 9 -9 22 -19 29 -15 11 -17 19 -10 38 13 36 11 89 -6 130 -8 19 -15 39 -15 44 0 5 7 9 15 9 8 0 15 -4 15 -10z m-31 -51 c14 -40 14 -90 1 -125 -9 -22 -7 -29 10 -41 11 -8 20 -20 20 -28 0 -7 6 -16 13 -18 8 -4 9 -8 2 -14 -6 -4 -15 -18 -20 -30 -19 -41 -173 -206 -265 -283 -17 -14 -33 -27 -35 -29 -3 -3 -20 -5 -39 -6 -51 -1 -50 1 144 206 90 95 101 109 90 109 -5 0 -18 -12 -27 -27 -10 -15 -71 -80 -135 -144 -65 -64 -118 -122 -119 -130 0 -8 -3 -9 -5 -3 -5 12 34 104 44 104 4 0 18 21 32 48 14 26 34 55 45 65 20 18 20 18 -4 3 -23 -14 -45 -44 -57 -78 -3 -10 -10 -18 -15 -18 -5 0 -18 -15 -29 -32 -11 -18 -20 -30 -20 -26 0 16 42 118 49 118 3 0 14 13 23 28 9 15 30 43 47 62 17 19 31 38 31 41 0 3 12 19 28 36 55 61 81 94 94 123 7 17 16 30 21 30 4 0 16 20 27 45 11 25 24 45 29 45 5 0 14 -14 20 -31z m-409 -130 c-11 -51 -23 -95 -28 -98 -5 -3 -17 -30 -26 -59 -10 -29 -23 -58 -29 -65 -7 -6 -23 -32 -36 -57 -14 -25 -30 -49 -38 -53 -7 -4 -13 -14 -13 -22 0 -7 -11 -22 -25 -33 -14 -11 -25 -23 -25 -27 0 -10 -64 -94 -106 -138 -11 -12 -29 -36 -39 -54 -26 -44 -40 -47 -41 -9 -1 17 1 23 3 14 8 -30 17 -20 42 42 13 33 27 60 30 60 3 0 12 12 18 28 7 15 28 45 48 67 19 22 35 46 35 53 0 7 7 15 15 18 8 3 24 27 36 52 13 26 28 50 34 54 7 4 20 28 29 53 10 25 21 45 25 45 4 0 15 23 25 50 10 28 24 57 31 63 7 7 16 24 20 37 14 45 -19 0 -44 -60 -13 -30 -27 -57 -31 -60 -3 -3 -17 -31 -30 -62 -13 -32 -27 -58 -31 -58 -4 0 -16 -17 -27 -39 -11 -21 -32 -51 -46 -67 -46 -51 -57 -65 -78 -100 -11 -19 -23 -34 -27 -34 -3 0 -17 -27 -30 -60 -13 -33 -28 -60 -33 -60 -10 0 -11 17 0 22 10 4 42 75 42 93 0 7 6 20 13 27 6 7 23 36 36 63 14 28 27 52 30 55 3 3 16 26 29 53 13 26 28 47 33 47 5 0 11 11 15 25 3 13 12 29 20 36 8 6 14 17 14 23 -1 15 -39 -36 -40 -51 0 -7 -5 -13 -11 -13 -5 0 -17 -16 -25 -36 -8 -20 -18 -34 -21 -31 -6 7 36 85 60 109 10 11 22 30 27 43 9 25 30 35 30 15 0 -5 -4 -10 -10 -10 -5 0 -10 -4 -10 -10 0 -23 18 -7 39 35 12 25 27 45 32 45 5 0 18 20 30 45 12 25 24 45 29 45 4 0 13 18 20 41 24 73 31 11 10 -92z m651 20 c72 -16 124 -58 115 -95 -5 -19 -1 -23 23 -29 15 -3 34 -17 41 -30 16 -29 6 -104 -17 -132 -17 -21 -17 -21 -54 -1 -39 20 -55 53 -37 75 8 10 6 18 -6 32 -13 15 -14 20 -4 24 7 3 3 6 -10 6 -13 1 -30 7 -38 15 -12 13 -12 16 2 24 13 7 9 16 -30 55 -25 26 -46 52 -46 57 0 12 -2 12 61 -1z m-164 -31 c-3 -8 -6 -5 -6 6 -1 11 2 17 5 13 3 -3 4 -12 1 -19z m80 -9 c24 -9 73 -50 73 -62 0 -3 -9 -7 -20 -10 -24 -6 -27 -37 -3 -37 18 0 83 -40 83 -52 0 -14 -79 -85 -109 -97 -17 -8 -31 -17 -31 -21 0 -4 -26 -18 -57 -31 -32 -12 -60 -26 -63 -30 -6 -8 -87 -49 -97 -49 -13 1 41 40 55 40 6 0 12 4 12 9 0 5 16 16 36 26 19 9 38 23 41 31 3 8 10 14 17 14 6 0 31 21 56 47 25 26 35 40 23 32 -12 -9 -32 -27 -43 -42 -12 -15 -28 -27 -35 -27 -8 0 -18 -6 -22 -13 -4 -8 -28 -24 -52 -38 -25 -13 -56 -34 -69 -46 -14 -13 -30 -23 -36 -23 -6 0 -20 -10 -30 -22 -18 -20 -18 -21 0 -15 17 7 17 6 -1 -8 -11 -9 -25 -13 -32 -10 -15 5 -64 -14 -75 -30 -6 -7 -10 -6 -15 1 -5 6 -15 14 -23 17 -12 4 -11 6 3 6 10 1 16 5 13 10 -3 4 2 15 12 24 81 74 242 237 242 245 0 6 8 17 18 24 23 16 49 69 58 114 7 37 21 42 71 23z m138 -228 c3 -11 21 -25 40 -31 18 -6 36 -17 39 -25 3 -8 12 -15 21 -15 8 0 15 -4 15 -10 0 -5 -4 -10 -8 -10 -4 0 -19 -29 -33 -65 -13 -36 -27 -65 -31 -65 -5 0 -8 -8 -9 -17 0 -15 -3 -14 -16 5 -8 12 -23 22 -32 22 -10 0 -25 6 -34 13 -15 11 -15 15 0 45 10 20 23 32 35 32 14 0 18 5 14 16 -3 9 -6 27 -6 40 0 14 -6 24 -14 24 -22 0 -28 17 -14 40 16 25 25 25 33 1z m-965 -31 c0 -5 -3 -10 -8 -10 -4 0 -18 -24 -31 -52 -13 -29 -30 -57 -36 -63 -7 -5 -21 -32 -31 -60 -10 -27 -21 -52 -25 -55 -11 -8 -49 -130 -49 -157 0 -12 -2 -23 -4 -23 -2 0 -11 -3 -19 -6 -12 -4 -13 2 -6 43 5 26 14 50 19 51 6 2 10 9 10 16 0 17 42 119 51 126 4 3 17 26 28 52 10 25 23 47 28 49 4 2 18 25 31 52 21 43 42 61 42 37z m921 -24 c13 -29 -12 -92 -41 -101 -37 -12 -32 -36 10 -52 22 -9 40 -20 40 -25 0 -4 6 -8 13 -8 7 0 21 -6 31 -13 14 -11 15 -17 6 -42 -6 -17 -16 -35 -23 -40 -7 -6 -17 -19 -23 -30 -6 -10 -19 -23 -29 -29 -11 -6 -26 -17 -34 -25 -21 -19 -153 -10 -175 12 -9 8 -31 21 -50 27 -23 7 -33 16 -30 25 5 13 -29 31 -43 22 -5 -3 -24 4 -43 15 -32 18 -25 18 17 1 10 -4 14 -2 10 4 -4 6 -1 11 6 10 53 -2 107 5 107 13 0 6 -34 10 -81 10 -51 0 -78 4 -74 10 3 6 1 10 -4 10 -7 0 -7 7 1 20 7 11 17 20 22 20 16 0 106 43 106 51 0 3 24 17 53 29 28 12 54 26 57 29 3 4 30 17 60 30 30 13 59 30 63 37 12 22 36 17 48 -10z m-321 -116 c0 -5 -7 -10 -15 -10 -8 0 -15 5 -15 10 0 6 7 10 15 10 8 0 15 -4 15 -10z m0 -180 c0 -5 -4 -10 -10 -10 -5 0 -10 5 -10 10 0 6 5 10 10 10 6 0 10 -4 10 -10z m-2170 -222 c27 -28 50 -59 50 -69 0 -23 -34 -45 -82 -53 -37 -7 -38 -6 -39 26 -2 30 -2 31 -6 6 -5 -29 -18 -37 -26 -15 -3 6 -6 0 -6 -15 -1 -28 -31 -42 -31 -15 0 8 -3 8 -9 -2 -8 -12 -12 -12 -25 2 -18 17 -21 37 -7 37 5 0 20 21 33 48 13 26 29 53 36 60 6 7 12 23 12 34 0 33 43 14 100 -44z m910 42 c0 -5 6 -10 14 -10 27 0 76 -56 76 -87 0 -33 -25 -73 -45 -73 -7 0 -15 -6 -18 -12 -2 -7 -10 5 -17 27 -12 38 -52 79 -75 80 -12 0 -45 29 -45 39 0 3 18 11 40 17 22 7 40 16 40 21 0 4 7 8 15 8 8 0 15 -4 15 -10z m-150 -60 c0 -5 5 -10 11 -10 26 0 96 -41 109 -64 7 -14 17 -26 22 -26 12 0 10 -68 -3 -72 -8 -3 -13 -60 -17 -176 -3 -95 -7 -170 -10 -167 -3 2 -9 33 -13 67 l-8 63 4 -72 c2 -40 2 -73 0 -73 -12 0 -35 34 -35 51 0 11 -7 27 -15 35 -8 9 -15 25 -15 36 0 14 -5 18 -16 14 -11 -4 -20 5 -31 32 -8 20 -18 39 -22 42 -4 3 -13 24 -21 48 -15 48 -7 62 37 62 12 0 25 4 28 10 3 5 -1 49 -10 97 -18 104 -18 113 -5 113 6 0 10 -4 10 -10z m-130 -62 c0 -4 22 -8 49 -8 l50 0 12 -55 c7 -30 10 -57 8 -59 -2 -2 -16 -6 -31 -10 -24 -5 -28 -3 -29 16 -1 21 -2 21 -6 3 -3 -11 -12 -26 -21 -32 -9 -8 -11 -13 -4 -13 7 0 12 -6 12 -13 0 -20 41 -141 50 -147 4 -3 17 -27 29 -55 12 -27 27 -53 34 -57 9 -6 9 -8 0 -8 -6 0 -21 16 -33 35 -19 31 -25 34 -58 30 -35 -4 -38 -3 -54 38 -10 23 -21 57 -24 75 -4 17 -10 32 -14 32 -5 0 -12 28 -16 63 -4 34 -10 53 -12 42 -6 -26 19 -155 30 -155 4 0 8 -5 8 -11 0 -6 7 -26 16 -45 9 -19 14 -37 11 -41 -4 -3 -11 7 -17 23 -6 16 -15 31 -19 34 -10 6 -51 165 -51 197 0 13 -4 23 -10 23 -5 0 -10 25 -10 56 0 72 16 88 66 65 19 -8 34 -19 34 -23z m-482 -5 c15 -14 14 -22 -7 -123 -6 -25 -10 -62 -11 -82 0 -21 -4 -38 -9 -38 -4 0 -12 -33 -15 -72 -9 -89 -35 -221 -46 -228 -4 -3 -15 -21 -25 -40 -16 -31 -59 -80 -71 -80 -11 0 -1 18 26 48 26 30 60 117 60 155 0 9 4 17 9 19 5 2 14 57 20 123 6 66 14 138 16 160 4 34 4 36 -5 16 -6 -13 -13 -57 -17 -98 -3 -40 -10 -73 -14 -73 -5 0 -9 -15 -9 -32 0 -52 -31 -208 -44 -221 -7 -7 -15 -21 -19 -31 -14 -36 -15 -11 -4 72 6 45 14 82 19 82 4 0 8 14 8 30 0 28 -19 44 -21 18 0 -7 -6 -51 -13 -98 l-12 -85 -5 203 c-3 129 -9 206 -16 210 -13 8 -34 82 -27 94 3 4 25 8 50 8 24 0 44 4 44 8 0 5 16 16 36 25 20 10 38 27 41 38 6 22 35 18 61 -8z m920 8 c23 -19 31 -81 12 -81 -6 0 -10 -30 -10 -70 0 -40 4 -70 10 -70 6 0 10 -13 10 -30 0 -16 -4 -30 -10 -30 -5 0 -10 -11 -10 -24 0 -40 -18 -77 -57 -117 -35 -35 -66 -53 -77 -42 -2 2 0 18 4 34 5 17 6 38 2 47 -5 13 -10 7 -19 -23 -12 -35 -13 -20 -9 128 4 173 10 197 47 197 12 0 26 13 36 35 9 19 20 35 25 35 4 0 8 7 8 15 0 20 12 19 38 -4z m-1286 -58 c11 -24 21 -29 62 -33 47 -5 50 -7 63 -45 8 -22 17 -75 20 -117 3 -43 10 -78 14 -78 5 0 9 -45 9 -100 0 -60 -4 -100 -10 -100 -6 0 -10 -30 -10 -70 0 -53 -3 -70 -14 -70 -13 0 -26 41 -26 86 0 27 -15 32 -24 8 -7 -19 3 -64 15 -64 5 0 9 -7 9 -15 0 -27 -18 -16 -25 15 -4 16 -10 29 -13 27 -13 -4 -60 45 -72 74 -7 16 -16 29 -20 29 -5 0 -18 30 -31 68 -12 37 -25 69 -29 72 -4 3 -15 41 -24 84 -16 79 -13 95 17 96 28 0 57 59 57 114 0 52 13 59 32 19z m1916 -244 c-18 -15 -43 -36 -54 -47 -12 -10 -28 -22 -35 -26 -41 -20 -60 -35 -79 -59 -12 -15 -26 -27 -32 -27 -5 0 -34 -25 -63 -55 -28 -30 -57 -55 -63 -55 -6 0 -17 -9 -26 -21 -8 -12 -26 -27 -41 -35 -25 -13 -26 -13 -23 14 2 15 12 31 25 37 11 6 34 24 50 40 16 17 48 46 72 65 24 19 55 46 70 58 l26 24 -25 -13 c-14 -6 -29 -18 -33 -25 -4 -8 -13 -14 -20 -14 -7 0 -34 -20 -62 -45 -27 -24 -54 -45 -58 -45 -5 0 -16 -8 -25 -18 -10 -10 -12 -11 -7 -3 11 17 77 81 122 120 15 13 45 33 65 43 21 11 38 23 38 27 0 3 24 17 53 31 28 13 54 27 57 31 13 16 53 29 72 23 15 -4 18 -3 13 6 -6 9 -4 11 4 5 9 -5 3 -15 -21 -36z m52 6 c0 -2 -10 -15 -22 -29 -13 -14 -34 -39 -48 -56 -14 -18 -37 -44 -52 -60 -16 -15 -28 -32 -28 -36 0 -13 -140 -143 -171 -160 -16 -8 -29 -18 -29 -22 0 -11 -70 -37 -102 -37 -16 0 -28 5 -28 12 0 15 35 53 49 53 5 0 35 25 66 55 31 30 60 55 65 55 5 0 17 10 27 23 10 12 34 33 53 47 19 13 37 27 40 30 3 3 14 12 25 20 40 30 -7 -22 -120 -132 -132 -130 -145 -141 -165 -150 -13 -6 -12 -7 2 -7 23 -1 85 54 195 173 28 31 55 56 60 56 4 0 44 38 88 84 72 75 95 95 95 81z m405 -91 c-8 -9 -22 -28 -30 -44 -8 -15 -21 -30 -30 -33 -8 -4 -15 -13 -15 -21 0 -8 -10 -23 -23 -33 -12 -10 -29 -29 -38 -43 -9 -14 -27 -36 -39 -50 -12 -14 -30 -36 -38 -50 -9 -14 -22 -29 -29 -33 -7 -4 -13 -14 -13 -21 0 -7 -10 -24 -22 -38 -13 -13 -34 -43 -46 -67 -35 -62 -110 -134 -166 -159 -40 -18 -41 -10 -4 19 53 41 118 110 118 124 0 8 6 18 13 22 8 4 24 28 38 52 13 25 34 56 47 69 12 14 22 31 22 38 0 7 6 17 13 21 7 4 20 19 28 33 9 14 33 43 52 65 20 22 37 43 37 47 0 9 70 78 79 78 5 0 16 9 26 20 10 11 22 20 27 20 5 0 2 -7 -7 -16z m-885 -89 c0 -53 -4 -68 -22 -89 -13 -13 -34 -38 -47 -55 -14 -17 -26 -29 -28 -28 -4 4 20 70 28 77 3 3 16 40 29 83 13 42 27 77 32 77 4 0 8 -29 8 -65z m748 2 c-24 -23 -54 -59 -67 -80 -12 -20 -26 -37 -29 -37 -4 0 -18 -23 -31 -50 -14 -28 -28 -50 -32 -50 -4 0 -17 -21 -29 -46 -13 -25 -33 -57 -46 -71 -13 -14 -24 -30 -24 -35 0 -8 -70 -78 -111 -110 -32 -26 -80 -49 -110 -53 l-31 -4 23 26 c13 14 48 50 77 82 72 77 84 91 104 123 18 28 25 37 78 97 16 19 30 37 30 40 0 12 163 172 169 166 3 -3 -1 -10 -9 -15 -8 -6 -11 -10 -7 -10 5 0 23 16 41 35 19 19 36 35 40 35 4 0 -12 -19 -36 -43z m-1101 -9 c-3 -8 -6 -5 -6 6 -1 11 2 17 5 13 3 -3 4 -12 1 -19z m1142 -80 c-6 -12 -15 -25 -19 -28 -3 -3 -17 -27 -30 -55 -13 -27 -26 -52 -29 -55 -3 -3 -16 -26 -29 -52 -13 -27 -27 -48 -31 -48 -4 0 -14 -12 -22 -27 -11 -24 -80 -96 -129 -137 -8 -6 -35 -21 -60 -31 -25 -11 -47 -22 -50 -26 -8 -9 -130 -33 -136 -26 -3 3 10 9 30 12 20 4 36 10 36 14 0 4 22 13 49 20 27 7 59 22 72 34 13 12 32 27 43 32 10 6 24 19 30 30 6 11 19 26 29 33 9 7 17 19 17 27 0 8 8 20 18 27 10 7 29 33 43 57 13 25 34 56 47 69 12 14 22 28 22 32 0 4 14 22 30 41 17 19 40 46 53 60 26 31 33 30 16 -3z m-823 -103 c-9 -14 -12 -25 -6 -25 6 0 8 -4 5 -10 -3 -5 -11 -10 -16 -10 -6 0 -7 5 -3 12 5 7 0 9 -14 6 -17 -5 -15 0 11 27 36 38 48 38 23 0z m-19 -122 c-4 -20 -10 -39 -15 -42 -5 -3 -19 -36 -32 -73 -13 -38 -27 -68 -31 -68 -4 0 -17 -25 -30 -56 -12 -31 -33 -68 -46 -82 -13 -14 -23 -31 -23 -38 0 -7 -9 -18 -20 -24 -11 -6 -20 -17 -20 -25 0 -8 -13 -24 -30 -37 -16 -12 -30 -27 -30 -34 0 -6 -21 -29 -47 -50 -25 -22 -60 -54 -76 -71 -17 -18 -35 -33 -40 -33 -5 0 -33 -25 -62 -55 -28 -30 -56 -55 -61 -55 -5 0 -4 4 1 8 6 4 21 30 34 57 13 28 30 54 38 58 7 4 13 14 13 21 0 7 10 24 23 38 12 13 33 44 46 69 14 24 30 48 38 52 7 4 13 14 13 21 0 7 10 24 23 37 12 14 33 46 47 72 14 26 28 47 31 47 3 0 16 23 29 50 13 28 26 50 30 50 4 0 17 23 29 50 12 28 26 50 30 50 4 0 14 18 21 40 10 30 20 42 39 46 14 3 31 7 36 9 6 2 18 4 29 4 16 1 18 -4 13 -36z m-1006 -178 c1 -66 4 -81 9 -55 12 56 12 -110 0 -231 -14 -137 -31 -253 -40 -259 -4 -3 -17 -50 -29 -105 -12 -54 -26 -102 -30 -105 -4 -3 -14 -29 -21 -57 -8 -29 -15 -51 -17 -49 -6 6 30 211 38 216 3 3 17 77 30 165 13 88 27 162 31 163 11 5 10 62 0 62 -5 0 -19 -71 -31 -157 -13 -87 -27 -160 -31 -163 -8 -5 -50 -242 -50 -284 0 -14 -4 -26 -10 -26 -5 0 -10 -15 -10 -32 0 -31 -37 -185 -39 -163 -4 49 38 408 49 415 9 6 53 245 48 260 -2 6 -12 -36 -22 -94 -11 -58 -22 -106 -26 -106 -4 0 -11 -16 -14 -35 -12 -62 -36 -278 -36 -322 0 -24 -4 -43 -9 -43 -5 0 -12 -12 -15 -27 -2 -16 -3 53 0 152 2 106 8 181 14 183 6 2 10 15 10 29 0 40 42 297 50 303 3 3 17 64 29 135 13 72 27 132 30 135 4 3 17 43 29 90 l22 85 -3 -75 c-2 -41 -2 -63 0 -47 2 15 8 27 14 27 5 0 9 30 9 68 0 103 19 55 21 -53z m418 -86 c-6 -24 -13 -75 -15 -113 -1 -38 -7 -72 -12 -75 -5 -3 -19 -64 -32 -136 -13 -71 -26 -132 -30 -135 -4 -3 -10 -18 -14 -35 -12 -55 -40 -140 -46 -145 -4 -3 -12 -14 -19 -25 l-12 -20 5 20 c3 11 8 32 12 48 3 15 10 27 15 27 5 0 9 9 9 20 0 11 -4 20 -10 20 -5 0 -10 -6 -10 -13 0 -20 -41 -141 -50 -147 -4 -3 -17 -25 -29 -50 -21 -45 -21 -45 -16 -10 3 19 7 53 10 75 3 29 1 26 -7 -12 -6 -29 -15 -53 -19 -53 -5 0 -9 -12 -10 -27 0 -26 -27 -108 -28 -89 -2 19 32 201 38 206 4 3 17 49 30 103 12 53 27 97 32 97 5 0 9 5 9 12 0 18 43 152 50 158 3 3 14 31 24 63 10 32 24 64 32 72 8 7 14 18 14 23 0 17 44 117 57 130 7 7 16 25 19 38 4 14 8 23 11 20 2 -2 -1 -24 -8 -47z m1283 -91 c-17 -17 -29 -35 -26 -40 4 -6 11 -5 17 1 6 6 15 11 19 11 4 0 -1 -9 -12 -20 -11 -11 -20 -25 -20 -32 0 -9 3 -9 12 0 22 22 29 13 8 -10 -11 -12 -20 -28 -20 -35 0 -7 -8 -21 -17 -31 -10 -10 -29 -38 -42 -62 -14 -25 -30 -49 -38 -53 -7 -4 -13 -14 -13 -21 0 -7 -11 -25 -24 -39 -13 -14 -33 -39 -45 -55 -26 -38 -85 -96 -122 -122 -29 -21 -59 -46 -107 -89 -15 -12 -39 -29 -54 -37 -16 -8 -28 -18 -28 -23 0 -5 -8 -11 -17 -14 -25 -8 -77 -40 -85 -53 -4 -6 -25 -19 -48 -29 -22 -10 -40 -21 -40 -25 0 -4 -24 -18 -52 -30 -29 -12 -55 -25 -58 -29 -3 -4 -18 -12 -35 -19 l-30 -13 28 25 c16 13 38 32 50 41 21 16 21 16 -5 1 -42 -24 -41 -20 5 27 23 23 40 47 39 53 -1 7 11 23 28 37 16 14 30 30 30 35 0 10 270 282 280 282 4 0 30 21 57 48 45 42 111 98 133 112 12 8 78 61 109 88 14 13 38 31 53 40 16 9 28 20 28 24 0 15 -19 8 -48 -19 -16 -16 -43 -39 -61 -53 -17 -14 -42 -35 -55 -47 -13 -13 -28 -23 -34 -23 -6 0 -19 -10 -29 -23 -10 -12 -29 -29 -43 -38 -14 -9 -38 -29 -55 -43 -16 -15 -59 -53 -94 -84 -81 -73 -258 -255 -372 -382 -24 -27 -28 -29 -19 -10 7 14 19 29 26 33 8 4 14 14 14 21 0 7 10 24 23 38 12 13 33 44 46 69 14 24 33 50 43 57 10 7 18 18 18 24 0 6 13 25 29 42 97 103 150 155 176 171 17 11 36 28 43 37 7 10 19 18 27 18 8 0 20 8 27 18 14 18 62 50 91 59 9 3 17 9 17 14 0 5 18 18 39 29 22 10 41 23 43 27 1 5 24 18 51 31 26 13 47 27 47 32 0 5 12 16 28 24 15 8 40 26 55 40 39 37 46 32 9 -6z m-869 -298 c-9 -22 -20 -40 -25 -40 -4 0 -8 -5 -8 -11 0 -6 -9 -23 -20 -37 -50 -65 -67 -86 -92 -115 -16 -17 -28 -35 -28 -39 0 -5 -8 -16 -17 -26 -20 -20 -67 -111 -61 -117 2 -3 12 13 22 35 10 22 22 40 27 40 5 0 9 6 9 13 0 8 9 22 20 32 11 10 20 23 20 29 0 6 10 18 23 26 21 13 25 15 45 19 4 1 18 26 31 56 14 30 30 56 38 59 16 7 17 1 1 -16 -7 -7 -24 -46 -37 -85 -13 -40 -27 -73 -31 -73 -4 0 -18 -26 -31 -57 -13 -31 -31 -65 -42 -76 -10 -10 -23 -32 -29 -48 -5 -16 -14 -29 -18 -29 -5 0 -19 -20 -31 -45 -23 -45 -34 -55 -41 -34 -2 7 -12 -16 -23 -50 -10 -33 -22 -61 -26 -61 -4 0 -10 -8 -13 -17 -2 -10 -3 0 -1 22 4 37 -6 2 -30 -102 -6 -26 -25 -31 -25 -8 0 8 4 15 8 15 5 0 14 26 20 58 27 132 36 167 41 172 4 3 17 40 31 83 13 42 27 77 32 77 5 0 18 21 29 47 11 26 24 50 28 53 5 3 19 25 31 50 12 25 29 49 36 53 8 4 14 14 14 21 0 7 18 32 40 57 22 24 40 47 40 51 0 6 51 58 57 58 1 0 -6 -18 -14 -40z m-78 -288 c-6 -4 -21 -38 -34 -77 -14 -38 -28 -72 -31 -75 -4 -3 -17 -27 -29 -55 -12 -27 -25 -52 -30 -55 -5 -3 -18 -24 -30 -47 -12 -24 -26 -43 -31 -43 -6 0 -10 -4 -10 -9 0 -15 -44 -79 -57 -85 -12 -5 -6 24 7 34 3 3 17 33 29 68 13 34 27 62 31 62 5 0 18 21 30 46 13 25 33 57 46 71 13 14 24 32 24 40 0 7 9 21 20 30 11 10 20 20 20 24 0 20 32 79 43 79 7 0 8 -3 2 -8z m-955 -372 c0 -5 -4 -10 -10 -10 -5 0 -10 5 -10 10 0 6 5 10 10 10 6 0 10 -4 10 -10z m125 -769 c-8 -61 -25 -68 -25 -11 0 22 5 40 10 40 6 0 10 8 10 17 0 9 3 14 6 10 3 -3 3 -29 -1 -56z" fill="#38405a"/>
    <path d="M1923 5725 c0 -22 2 -30 4 -17 2 12 2 30 0 40 -3 9 -5 -1 -4 -23z" fill="#38405a"/>
    <path d="M1762 5540 c0 -19 2 -27 5 -17 2 9 2 25 0 35 -3 9 -5 1 -5 -18z" fill="#38405a"/>
    <path d="M1752 5475 c0 -16 2 -22 5 -12 2 9 2 23 0 30 -3 6 -5 -1 -5 -18z" fill="#38405a"/>
    <path d="M1740 5412 c0 -18 -4 -32 -10 -32 -5 0 -10 -11 -10 -25 0 -14 4 -25 9 -25 11 0 26 98 17 107 -3 4 -6 -8 -6 -25z" fill="#38405a"/>
    <path d="M1090 5295 c0 -5 5 -17 10 -25 5 -8 10 -10 10 -5 0 6 -5 17 -10 25 -5 8 -10 11 -10 5z" fill="#38405a"/>
    <path d="M1092 5205 c0 -11 3 -29 8 -40 11 -25 11 1 0 35 -6 20 -8 21 -8 5z" fill="#38405a"/>
    <path d="M1171 5120 c6 -16 14 -30 18 -30 3 0 17 -28 31 -62 13 -35 27 -65 31 -68 3 -3 17 -34 30 -70 12 -36 26 -67 30 -70 4 -3 17 -27 28 -53 11 -26 26 -47 33 -47 9 0 10 2 2 8 -6 4 -22 32 -35 62 -12 30 -26 57 -30 60 -3 3 -17 35 -29 73 -12 37 -26 67 -29 67 -4 0 -17 27 -30 60 -13 33 -28 60 -33 60 -4 0 -8 6 -8 14 0 8 -4 17 -10 21 -5 3 -5 -7 1 -25z" fill="#38405a"/>
    <path d="M1116 5106 c2 -16 4 -32 4 -37 0 -5 5 -9 10 -9 6 0 10 9 10 20 0 11 -4 20 -9 20 -5 0 -12 8 -14 18 -2 9 -3 4 -1 -12z" fill="#38405a"/>
    <path d="M1296 5045 c3 -7 12 -16 19 -19 9 -3 12 0 9 9 -3 7 -12 16 -19 19 -9 3 -12 0 -9 -9z" fill="#38405a"/>
    <path d="M1151 5014 c-1 -16 28 -97 38 -104 4 -3 18 -31 31 -62 13 -32 27 -58 31 -58 5 0 18 -22 31 -50 13 -27 26 -50 30 -50 4 0 14 -12 22 -27 16 -33 66 -88 66 -75 0 5 -10 20 -23 33 -13 13 -32 39 -43 58 -10 19 -27 43 -36 53 -10 10 -18 24 -18 31 0 7 -8 22 -18 33 -10 10 -28 44 -41 74 -13 30 -27 57 -31 60 -4 3 -14 25 -23 50 -8 25 -16 40 -16 34z" fill="#38405a"/>
    <path d="M1347 4963 c9 -24 20 -43 24 -43 4 0 13 -16 19 -36 7 -19 14 -33 16 -31 7 7 -27 87 -37 87 -5 0 -9 6 -9 13 0 7 -7 22 -15 33 -12 15 -11 11 2 -23z" fill="#38405a"/>
    <path d="M1397 4660 c3 -11 9 -22 13 -25 5 -3 6 4 3 15 -3 11 -9 22 -13 25 -5 3 -6 -4 -3 -15z" fill="#38405a"/>
    <path d="M1441 4584 c0 -11 3 -14 6 -6 3 7 2 16 -1 19 -3 4 -6 -2 -5 -13z" fill="#38405a"/>
    <path d="M1412 4554 c10 -10 20 -16 22 -13 3 3 -5 11 -17 18 -21 13 -21 12 -5 -5z" fill="#38405a"/>
    <path d="M2542 5297 c-7 -19 -26 -50 -42 -68 -16 -19 -30 -37 -30 -41 0 -4 -25 -32 -55 -62 -30 -30 -55 -57 -55 -61 0 -6 86 82 140 143 26 29 62 101 58 113 -2 6 -9 -5 -16 -24z" fill="#38405a"/>
    <path d="M2526 5153 c-6 -14 -5 -15 5 -6 7 7 10 15 7 18 -3 3 -9 -2 -12 -12z" fill="#38405a"/>
    <path d="M2532 5088 c-7 -7 -12 -15 -12 -19 0 -4 -55 -62 -121 -129 -67 -66 -119 -124 -116 -127 4 -3 26 15 49 40 24 25 77 81 118 124 41 43 80 88 87 101 13 25 12 27 -5 10z" fill="#38405a"/>
    <path d="M2176 5335 c-3 -9 -6 -22 -5 -28 0 -7 5 -1 10 12 5 13 8 26 5 28 -2 2 -6 -3 -10 -12z" fill="#38405a"/>
    <path d="M2975 5050 c-3 -6 1 -7 9 -4 18 7 21 14 7 14 -6 0 -13 -4 -16 -10z" fill="#38405a"/>
    <path d="M2570 4970 c-47 -49 -104 -99 -127 -111 -24 -12 -43 -25 -43 -29 0 -5 -12 -11 -27 -15 -21 -5 -24 -8 -12 -16 12 -7 12 -9 0 -9 -8 0 -12 -3 -9 -6 6 -6 78 22 78 30 0 3 -8 2 -17 -1 -14 -5 -13 -2 4 16 12 13 27 21 35 18 9 -4 7 -6 -4 -6 -10 -1 -18 -5 -18 -11 0 -17 18 -11 43 13 13 12 31 27 41 32 9 6 18 19 20 29 1 11 9 22 16 24 8 3 10 0 5 -8 -4 -7 5 -5 24 4 17 9 31 20 31 25 0 5 16 18 35 30 19 11 35 25 35 32 0 6 8 18 18 27 10 10 11 13 2 7 -8 -5 -29 -23 -46 -40 -59 -57 -85 -78 -91 -71 -3 3 -2 6 3 6 5 0 20 18 34 40 14 22 28 40 32 40 4 0 12 9 18 20 6 11 9 20 8 19 -2 0 -41 -40 -88 -89z m-46 -75 c-7 -16 -24 -21 -24 -6 0 8 7 13 27 20 1 1 0 -6 -3 -14z m-127 -91 c-3 -3 -12 -4 -19 -1 -8 3 -5 6 6 6 11 1 17 -2 13 -5z" fill="#38405a"/>
    <path d="M2860 4830 c0 -5 7 -10 15 -10 8 0 15 5 15 10 0 6 -7 10 -15 10 -8 0 -15 -4 -15 -10z" fill="#38405a"/>
    <path d="M2778 4900 c-7 -11 -18 -20 -24 -20 -6 0 -17 -7 -24 -15 -11 -13 -9 -14 15 -1 24 13 64 56 51 56 -3 0 -11 -9 -18 -20z" fill="#38405a"/>
    <path d="M2693 4843 c-15 -5 -17 -23 -4 -23 5 0 11 7 15 15 3 8 4 15 3 14 -1 0 -8 -3 -14 -6z" fill="#38405a"/>
    <path d="M2692 4764 c-7 -8 -8 -14 -3 -14 10 0 25 19 20 25 -2 1 -10 -3 -17 -11z" fill="#38405a"/>
    <path d="M2478 4743 c7 -3 16 -2 19 1 4 3 -2 6 -13 5 -11 0 -14 -3 -6 -6z" fill="#38405a"/>
    <path d="M2789 4683 c-13 -17 -13 -17 6 -3 11 8 22 16 24 17 2 2 0 3 -6 3 -6 0 -17 -8 -24 -17z" fill="#38405a"/>
    <path d="M2728 4663 c-22 -5 -24 -23 -3 -23 8 0 15 4 15 9 0 5 8 12 18 14 11 3 12 5 2 5 -8 0 -23 -2 -32 -5z" fill="#38405a"/>
    <path d="M2588 4633 c23 -2 59 -2 80 0 20 2 1 4 -43 4 -44 0 -61 -2 -37 -4z" fill="#38405a"/>
    <path d="M300 4415 c0 -5 5 -17 10 -25 5 -8 10 -10 10 -5 0 6 -5 17 -10 25 -5 8 -10 11 -10 5z" fill="#38405a"/>
    <path d="M321 4344 c0 -11 3 -14 6 -6 3 7 2 16 -1 19 -3 4 -6 -2 -5 -13z" fill="#38405a"/>
    <path d="M371 4344 c0 -11 3 -14 6 -6 3 7 2 16 -1 19 -3 4 -6 -2 -5 -13z" fill="#38405a"/>
    <path d="M1120 4355 c0 -3 9 -14 20 -25 22 -22 26 -14 6 13 -13 16 -26 23 -26 12z" fill="#38405a"/>
    <path d="M1167 4245 c3 -33 7 -62 9 -64 7 -8 2 63 -7 94 -5 20 -6 9 -2 -30z" fill="#38405a"/>
    <path d="M1212 4215 c0 -16 2 -22 5 -12 2 9 2 23 0 30 -3 6 -5 -1 -5 -18z" fill="#38405a"/>
    <path d="M1203 4110 c0 -30 2 -43 4 -27 2 15 2 39 0 55 -2 15 -4 2 -4 -28z" fill="#38405a"/>
    <path d="M1163 4100 c0 -25 2 -35 4 -22 2 12 2 32 0 45 -2 12 -4 2 -4 -23z" fill="#38405a"/>
    <path d="M1101 4084 c0 -11 3 -14 6 -6 3 7 2 16 -1 19 -3 4 -6 -2 -5 -13z" fill="#38405a"/>
    <path d="M1112 4040 c0 -14 2 -19 5 -12 2 6 2 18 0 25 -3 6 -5 1 -5 -13z" fill="#38405a"/>
    <path d="M912 4280 c0 -19 2 -27 5 -17 2 9 2 25 0 35 -3 9 -5 1 -5 -18z" fill="#38405a"/>
    <path d="M971 4250 c-1 -43 26 -164 38 -168 6 -2 11 -10 11 -18 0 -8 9 -31 21 -52 12 -20 19 -28 16 -17 -9 38 -42 120 -50 126 -4 3 -14 39 -21 80 -8 41 -14 63 -15 49z" fill="#38405a"/>
    <path d="M382 4155 c0 -16 2 -22 5 -12 2 9 2 23 0 30 -3 6 -5 -1 -5 -18z" fill="#38405a"/>
    <path d="M372 4070 c0 -19 2 -27 5 -17 2 9 2 25 0 35 -3 9 -5 1 -5 -18z" fill="#38405a"/>
    <path d="M362 4000 c0 -19 2 -27 5 -17 2 9 2 25 0 35 -3 9 -5 1 -5 -18z" fill="#38405a"/>
    <path d="M1403 4205 c0 -38 2 -53 4 -32 2 20 2 52 0 70 -2 17 -4 1 -4 -38z" fill="#38405a"/>
    <path d="M1300 4115 c0 -25 5 -45 10 -45 6 0 10 20 10 45 0 25 -4 45 -10 45 -5 0 -10 -20 -10 -45z" fill="#38405a"/>
    <path d="M1352 4125 c0 -16 2 -22 5 -12 2 9 2 23 0 30 -3 6 -5 -1 -5 -18z" fill="#38405a"/>
    <path d="M1392 4100 c0 -14 2 -19 5 -12 2 6 2 18 0 25 -3 6 -5 1 -5 -13z" fill="#38405a"/>
    <path d="M1381 4054 c0 -11 3 -14 6 -6 3 7 2 16 -1 19 -3 4 -6 -2 -5 -13z" fill="#38405a"/>
    <path d="M1331 4044 c0 -11 3 -14 6 -6 3 7 2 16 -1 19 -3 4 -6 -2 -5 -13z" fill="#38405a"/>
    <path d="M1297 4000 c7 -54 16 -56 26 -5 4 17 4 24 1 18 -8 -18 -22 -16 -27 5 -2 9 -2 1 0 -18z" fill="#38405a"/>
    <path d="M1315 3926 c-22 -23 -26 -36 -11 -30 8 3 17 13 20 21 8 20 4 24 -9 9z" fill="#38405a"/>
    <path d="M182 4100 c0 -19 2 -27 5 -17 2 9 2 25 0 35 -3 9 -5 1 -5 -18z" fill="#38405a"/>
    <path d="M71 4044 c0 -11 3 -14 6 -6 3 7 2 16 -1 19 -3 4 -6 -2 -5 -13z" fill="#38405a"/>
    <path d="M192 4040 c0 -14 6 -65 13 -115 l14 -90 -5 75 c-6 80 -21 173 -22 130z" fill="#38405a"/>
    <path d="M121 4024 c0 -11 3 -14 6 -6 3 7 2 16 -1 19 -3 4 -6 -2 -5 -13z" fill="#38405a"/>
    <path d="M82 4000 c0 -14 2 -19 5 -12 2 6 2 18 0 25 -3 6 -5 1 -5 -13z" fill="#38405a"/>
    <path d="M253 3935 c0 -27 2 -38 4 -22 2 15 2 37 0 50 -2 12 -4 0 -4 -28z" fill="#38405a"/>
    <path d="M141 3934 c0 -11 3 -14 6 -6 3 7 2 16 -1 19 -3 4 -6 -2 -5 -13z" fill="#38405a"/>
    <path d="M100 3925 c0 -8 5 -15 10 -15 6 0 10 -5 10 -12 0 -16 41 -100 57 -116 7 -7 13 -21 14 -30 0 -10 4 -7 10 9 7 20 6 36 -6 60 -8 19 -13 26 -10 16 3 -11 7 -31 10 -45 l5 -27 -12 25 c-7 14 -20 33 -29 43 -9 10 -22 38 -29 63 -12 42 -30 60 -30 29z" fill="#38405a"/>
    <path d="M153 3897 c4 -10 7 -23 7 -28 0 -5 5 -9 10 -9 15 0 12 20 -7 38 -16 16 -16 16 -10 -1z" fill="#38405a"/>
    <path d="M263 3760 c0 -25 2 -35 4 -22 2 12 2 32 0 45 -2 12 -4 2 -4 -23z" fill="#38405a"/>
    <path d="M2013 4057 c-4 -7 -26 -22 -47 -33 -22 -11 -42 -27 -44 -34 -4 -10 0 -9 12 3 10 10 33 24 52 32 19 8 34 18 34 24 0 5 8 12 18 14 15 4 15 5 0 6 -9 0 -21 -5 -25 -12z" fill="#38405a"/>
    <path d="M2274 3804 c-22 -25 -42 -55 -46 -65 -4 -10 -11 -19 -16 -19 -5 0 -15 -14 -22 -30 -7 -17 -20 -36 -29 -43 -9 -7 -24 -27 -35 -46 -17 -31 -97 -113 -206 -211 -25 -22 -39 -40 -32 -40 14 0 45 27 159 143 98 97 110 111 134 159 11 22 32 53 45 67 13 14 24 31 24 38 0 7 9 17 20 23 11 6 20 16 20 22 0 6 7 20 17 30 9 10 14 18 11 18 -3 0 -23 -21 -44 -46z" fill="#38405a"/>
    <path d="M495 3235 c-4 -37 -5 -69 -2 -71 2 -3 8 25 12 61 4 37 5 69 2 71 -2 3 -8 -25 -12 -61z" fill="#38405a"/>
    <path d="M552 3260 c0 -19 2 -27 5 -17 2 9 2 25 0 35 -3 9 -5 1 -5 -18z" fill="#38405a"/>
    <path d="M542 3170 c0 -19 2 -27 5 -17 2 9 2 25 0 35 -3 9 -5 1 -5 -18z" fill="#38405a"/>
    <path d="M483 3105 c0 -22 2 -30 4 -17 2 12 2 30 0 40 -3 9 -5 -1 -4 -23z" fill="#38405a"/>
    <path d="M460 3030 c0 -16 5 -30 10 -30 6 0 10 14 10 30 0 17 -4 30 -10 30 -5 0 -10 -13 -10 -30z" fill="#38405a"/>
    <path d="M928 3158 c-7 -24 -11 -54 -10 -66 2 -13 -1 -21 -7 -18 -5 3 -7 -3 -4 -14 3 -11 7 -20 9 -20 1 0 8 27 15 60 6 33 16 60 20 60 5 0 9 9 9 20 0 35 -19 22 -32 -22z" fill="#38405a"/>
    <path d="M871 3028 c-6 -17 -9 -33 -7 -36 3 -2 8 7 12 22 3 14 10 26 15 26 5 0 9 5 9 10 0 22 -19 8 -29 -22z" fill="#38405a"/>
    <path d="M901 3004 c0 -11 3 -14 6 -6 3 7 2 16 -1 19 -3 4 -6 -2 -5 -13z" fill="#38405a"/>
    <path d="M880 2960 c0 -11 5 -20 10 -20 6 0 10 9 10 20 0 11 -4 20 -10 20 -5 0 -10 -9 -10 -20z" fill="#38405a"/>
    <path d="M820 2915 c0 -8 5 -15 10 -15 6 0 10 7 10 15 0 8 -4 15 -10 15 -5 0 -10 -7 -10 -15z" fill="#38405a"/>
    <path d="M872 2910 c0 -14 2 -19 5 -12 2 6 2 18 0 25 -3 6 -5 1 -5 -13z" fill="#38405a"/>
    <path d="M862 2860 c0 -14 2 -19 5 -12 2 6 2 18 0 25 -3 6 -5 1 -5 -13z" fill="#38405a"/>
    <path d="M789 2811 c-7 -28 -16 -51 -19 -51 -8 0 -34 -100 -27 -106 2 -3 8 11 11 30 4 19 10 36 14 38 9 4 45 129 38 135 -2 2 -10 -19 -17 -46z" fill="#38405a"/>
    <path d="M845 2800 c-4 -17 -5 -34 -2 -36 2 -3 7 10 11 27 8 42 0 50 -9 9z" fill="#38405a"/>
    <path d="M2226 3157 c3 -10 9 -15 12 -12 3 3 0 11 -7 18 -10 9 -11 8 -5 -6z" fill="#38405a"/>
    <path d="M2198 3107 c-13 -14 -39 -44 -58 -66 -19 -23 -39 -41 -44 -41 -4 0 -37 -28 -71 -62 -35 -35 -91 -88 -125 -118 -34 -30 -72 -65 -85 -76 -13 -12 -37 -31 -54 -43 -31 -22 -70 -54 -100 -81 -9 -8 -31 -26 -49 -39 -53 -37 -107 -89 -100 -96 3 -4 15 2 25 12 24 22 58 51 98 81 59 44 87 67 113 95 14 15 30 27 35 27 5 0 26 16 46 35 20 19 73 71 119 115 46 44 87 80 92 80 5 0 17 10 27 23 30 35 73 71 73 61 0 -6 -18 -30 -39 -54 -22 -25 -54 -61 -71 -80 -57 -66 -186 -195 -224 -225 -21 -16 -45 -37 -54 -46 -9 -9 -33 -24 -52 -35 -19 -10 -39 -25 -43 -32 -4 -6 -22 -19 -40 -28 -18 -9 -35 -21 -38 -26 -3 -5 -21 -17 -39 -27 -19 -10 -36 -24 -38 -31 -3 -7 6 -4 18 8 13 12 29 22 35 22 6 0 21 9 33 20 11 11 39 29 61 41 23 12 41 24 41 28 0 4 15 15 33 26 41 24 47 29 202 183 154 154 222 226 253 269 25 36 29 51 7 33 -13 -10 -13 -8 1 18 8 17 22 33 32 36 16 6 16 5 0 -8 -19 -14 -24 -36 -8 -36 16 0 33 41 22 52 -7 7 -18 2 -34 -15z m-34 -72 c-7 -16 -24 -21 -24 -6 0 8 7 13 27 20 1 1 0 -6 -3 -14z" fill="#38405a"/>
    <path d="M1268 2684 c-7 -16 -18 -32 -24 -36 -7 -4 -20 -30 -30 -58 -10 -27 -21 -50 -25 -50 -8 0 -42 -81 -35 -87 2 -2 9 12 16 31 6 20 15 36 19 36 5 0 16 21 26 48 10 26 23 52 29 57 16 13 47 77 41 83 -2 2 -10 -8 -17 -24z" fill="#38405a"/>
    <path d="M1120 2501 c0 -5 -3 -18 -7 -28 -6 -17 -6 -17 10 -1 19 18 22 38 7 38 -5 0 -10 -4 -10 -9z" fill="#38405a"/>
    <path d="M1101 2434 c0 -11 3 -14 6 -6 3 7 2 16 -1 19 -3 4 -6 -2 -5 -13z" fill="#38405a"/>
    <path d="M1140 2427 c0 -9 -4 -17 -10 -17 -5 0 -10 -4 -10 -10 0 -5 4 -10 9 -10 12 0 25 39 17 47 -3 4 -6 -1 -6 -10z" fill="#38405a"/>
    <path d="M1081 2364 c0 -11 3 -14 6 -6 3 7 2 16 -1 19 -3 4 -6 -2 -5 -13z" fill="#38405a"/>
    <path d="M1060 2320 c0 -11 5 -20 10 -20 6 0 10 9 10 20 0 11 -4 20 -10 20 -5 0 -10 -9 -10 -20z" fill="#38405a"/>
    <path d="M7986 6074 c-4 -14 -5 -28 -3 -31 3 -2 8 8 11 23 4 14 5 28 3 31 -3 2 -8 -8 -11 -23z" fill="#38405a"/>
    <path d="M7981 5974 c0 -11 3 -14 6 -6 3 7 2 16 -1 19 -3 4 -6 -2 -5 -13z" fill="#38405a"/>
    <path d="M10 4230 c6 -11 13 -20 16 -20 2 0 0 9 -6 20 -6 11 -13 20 -16 20 -2 0 0 -9 6 -20z" fill="#38405a"/>
    <path d="M1 3924 c0 -11 3 -14 6 -6 3 7 2 16 -1 19 -3 4 -6 -2 -5 -13z" fill="#38405a"/>
    <path d="M15 3878 c4 -13 11 -27 16 -33 5 -5 4 5 -2 23 -12 36 -24 44 -14 10z" fill="#38405a"/>
    <path d="M54 3815 c8 -9 23 -29 33 -45 9 -17 22 -30 27 -30 5 0 19 -8 30 -17 l21 -18 -20 24 c-30 37 -94 101 -101 101 -3 0 1 -7 10 -15z" fill="#38405a"/>
    <path d="M1 3021 c-1 -32 39 -181 48 -181 4 0 18 -34 31 -75 13 -41 27 -75 31 -75 3 0 9 -14 13 -32 3 -17 8 -29 11 -27 6 7 -16 89 -25 89 -4 0 -18 37 -30 83 -12 45 -26 84 -30 87 -4 3 -16 39 -28 80 -11 41 -21 64 -21 51z" fill="#38405a"/>
    <path d="M1 2766 c-2 -16 44 -106 55 -110 7 -3 10 3 7 15 -3 10 -9 19 -15 19 -5 0 -17 19 -28 43 -10 23 -19 38 -19 33z" fill="#38405a"/>
    <path d="M77 2620 c3 -11 9 -22 13 -25 5 -3 6 4 3 15 -3 11 -9 22 -13 25 -5 3 -6 -4 -3 -15z" fill="#38405a"/>
    <path d="M141 2616 c-2 -18 24 -92 37 -105 11 -11 12 -9 6 15 -4 16 -10 31 -14 34 -4 3 -12 19 -18 35 -6 17 -11 26 -11 21z" fill="#38405a"/>
    <path d="M106 2573 c6 -4 21 -34 34 -65 13 -32 27 -58 32 -58 10 0 11 17 0 22 -4 2 -17 25 -29 53 -12 27 -27 51 -35 53 -8 2 -9 1 -2 -5z" fill="#38405a"/>
    <path d="M181 2430 c0 -8 4 -24 9 -35 5 -13 9 -14 9 -5 0 8 -4 24 -9 35 -5 13 -9 14 -9 5z" fill="#38405a"/>
  </g>
</svg>