<svg xmlns="http://www.w3.org/2000/svg" version="1.1" xmlns:xlink="http://www.w3.org/1999/xlink" xmlns:svgjs="http://svgjs.com/svgjs" width="1440" height="560" preserveAspectRatio="none" viewBox="0 0 1440 560"><g mask="url(&quot;#SvgjsMask1003&quot;)" fill="none"><rect width="1440" height="560" x="0" y="0" fill="rgba(79, 152, 228, 1)"></rect><path d="M0,382.336C105.85,401.447,210.21,525.843,303.219,471.818C394.557,418.764,325.749,264.88,368.503,168.29C410.448,73.526,542.342,24.906,546.864,-78.627C551.365,-181.688,472.296,-275.453,390.637,-338.489C315.334,-396.619,209.833,-377.316,119.871,-408.242C23.853,-441.25,-56.586,-553.064,-154.406,-525.857C-251.951,-498.726,-264.596,-363.119,-327.527,-283.804C-386.795,-209.105,-500.765,-168.326,-513.103,-73.773C-525.448,20.835,-437.341,95.584,-387.659,177.038C-344.107,248.442,-314.082,334.567,-240.169,373.71C-167.912,411.976,-80.463,367.809,0,382.336" fill="#2179d5"></path><path d="M1440 990.947C1519.099 967.915 1535.153 859.869 1600.335 809.487 1656.896 765.769 1746.632 776.523 1790.469 720.054 1836.907 660.233 1842.5720000000001 578.326 1838.487 502.706 1834.1399999999999 422.243 1816.718 340.102 1766.536 277.055 1715.367 212.767 1641.738 156.59199999999998 1559.6779999999999 152.416 1480.445 148.38400000000001 1425.716 230.051 1350.706 255.892 1280.8 279.974 1197.603 254.82999999999998 1137.4769999999999 297.862 1071.993 344.728 1023.509 418.76300000000003 1011.812 498.436 1000.1030000000001 578.19 1041.065 653.5699999999999 1074.483 726.9259999999999 1107.93 800.345 1140.443 877.1120000000001 1205.845 924.3530000000001 1272.9859999999999 972.85 1360.478 1014.102 1440 990.947" fill="#84b7ec"></path></g><defs><mask id="SvgjsMask1003"><rect width="1440" height="560" fill="#ffffff"></rect></mask></defs></svg>