<?xml version="1.0" standalone="no"?>
<svg xmlns:xlink="http://www.w3.org/1999/xlink" id="wave" style="transform:rotate(0deg); transition: 0.3s" viewBox="0 0 1440 330" version="1.1" xmlns="http://www.w3.org/2000/svg"><defs><linearGradient id="sw-gradient-0" x1="0" x2="0" y1="1" y2="0"><stop stop-color="rgba(73, 85, 123, 1)" offset="0%"/><stop stop-color="rgba(53, 63, 88, 1)" offset="100%"/></linearGradient></defs><path style="transform:translate(0, 0px); opacity:1" fill="url(#sw-gradient-0)" d="M0,198L240,209C480,220,960,242,1440,231C1920,220,2400,176,2880,170.5C3360,165,3840,198,4320,192.5C4800,187,5280,143,5760,143C6240,143,6720,187,7200,220C7680,253,8160,275,8640,269.5C9120,264,9600,231,10080,231C10560,231,11040,264,11520,253C12000,242,12480,187,12960,143C13440,99,13920,66,14400,55C14880,44,15360,55,15840,49.5C16320,44,16800,22,17280,38.5C17760,55,18240,110,18720,137.5C19200,165,19680,165,20160,181.5C20640,198,21120,231,21600,214.5C22080,198,22560,132,23040,126.5C23520,121,24000,176,24480,181.5C24960,187,25440,143,25920,104.5C26400,66,26880,33,27360,22C27840,11,28320,22,28800,55C29280,88,29760,143,30240,143C30720,143,31200,88,31680,99C32160,110,32640,187,33120,203.5C33600,220,34080,176,34320,154L34560,132L34560,330L34320,330C34080,330,33600,330,33120,330C32640,330,32160,330,31680,330C31200,330,30720,330,30240,330C29760,330,29280,330,28800,330C28320,330,27840,330,27360,330C26880,330,26400,330,25920,330C25440,330,24960,330,24480,330C24000,330,23520,330,23040,330C22560,330,22080,330,21600,330C21120,330,20640,330,20160,330C19680,330,19200,330,18720,330C18240,330,17760,330,17280,330C16800,330,16320,330,15840,330C15360,330,14880,330,14400,330C13920,330,13440,330,12960,330C12480,330,12000,330,11520,330C11040,330,10560,330,10080,330C9600,330,9120,330,8640,330C8160,330,7680,330,7200,330C6720,330,6240,330,5760,330C5280,330,4800,330,4320,330C3840,330,3360,330,2880,330C2400,330,1920,330,1440,330C960,330,480,330,240,330L0,330Z"/><defs><linearGradient id="sw-gradient-1" x1="0" x2="0" y1="1" y2="0"><stop stop-color="rgba(53, 63, 88, 1)" offset="0%"/><stop stop-color="rgba(73, 85, 123, 1)" offset="100%"/></linearGradient></defs><path style="transform:translate(0, 50px); opacity:0.9" fill="url(#sw-gradient-1)" d="M0,297L240,264C480,231,960,165,1440,126.5C1920,88,2400,77,2880,66C3360,55,3840,44,4320,82.5C4800,121,5280,209,5760,225.5C6240,242,6720,187,7200,154C7680,121,8160,110,8640,99C9120,88,9600,77,10080,110C10560,143,11040,220,11520,247.5C12000,275,12480,253,12960,220C13440,187,13920,143,14400,143C14880,143,15360,187,15840,220C16320,253,16800,275,17280,236.5C17760,198,18240,99,18720,99C19200,99,19680,198,20160,242C20640,286,21120,275,21600,247.5C22080,220,22560,176,23040,165C23520,154,24000,176,24480,176C24960,176,25440,154,25920,148.5C26400,143,26880,154,27360,165C27840,176,28320,187,28800,203.5C29280,220,29760,242,30240,214.5C30720,187,31200,110,31680,88C32160,66,32640,99,33120,99C33600,99,34080,66,34320,49.5L34560,33L34560,330L34320,330C34080,330,33600,330,33120,330C32640,330,32160,330,31680,330C31200,330,30720,330,30240,330C29760,330,29280,330,28800,330C28320,330,27840,330,27360,330C26880,330,26400,330,25920,330C25440,330,24960,330,24480,330C24000,330,23520,330,23040,330C22560,330,22080,330,21600,330C21120,330,20640,330,20160,330C19680,330,19200,330,18720,330C18240,330,17760,330,17280,330C16800,330,16320,330,15840,330C15360,330,14880,330,14400,330C13920,330,13440,330,12960,330C12480,330,12000,330,11520,330C11040,330,10560,330,10080,330C9600,330,9120,330,8640,330C8160,330,7680,330,7200,330C6720,330,6240,330,5760,330C5280,330,4800,330,4320,330C3840,330,3360,330,2880,330C2400,330,1920,330,1440,330C960,330,480,330,240,330L0,330Z"/><defs><linearGradient id="sw-gradient-2" x1="0" x2="0" y1="1" y2="0"><stop stop-color="rgba(53, 63, 88, 1)" offset="0%"/><stop stop-color="rgba(53, 63, 88, 1)" offset="100%"/></linearGradient></defs><path style="transform:translate(0, 100px); opacity:0.8" fill="url(#sw-gradient-2)" d="M0,165L240,176C480,187,960,209,1440,198C1920,187,2400,143,2880,115.5C3360,88,3840,77,4320,93.5C4800,110,5280,154,5760,165C6240,176,6720,154,7200,159.5C7680,165,8160,198,8640,198C9120,198,9600,165,10080,126.5C10560,88,11040,44,11520,60.5C12000,77,12480,154,12960,187C13440,220,13920,209,14400,214.5C14880,220,15360,242,15840,236.5C16320,231,16800,198,17280,176C17760,154,18240,143,18720,132C19200,121,19680,110,20160,99C20640,88,21120,77,21600,82.5C22080,88,22560,110,23040,126.5C23520,143,24000,154,24480,176C24960,198,25440,231,25920,225.5C26400,220,26880,176,27360,143C27840,110,28320,88,28800,110C29280,132,29760,198,30240,192.5C30720,187,31200,110,31680,115.5C32160,121,32640,209,33120,225.5C33600,242,34080,187,34320,159.5L34560,132L34560,330L34320,330C34080,330,33600,330,33120,330C32640,330,32160,330,31680,330C31200,330,30720,330,30240,330C29760,330,29280,330,28800,330C28320,330,27840,330,27360,330C26880,330,26400,330,25920,330C25440,330,24960,330,24480,330C24000,330,23520,330,23040,330C22560,330,22080,330,21600,330C21120,330,20640,330,20160,330C19680,330,19200,330,18720,330C18240,330,17760,330,17280,330C16800,330,16320,330,15840,330C15360,330,14880,330,14400,330C13920,330,13440,330,12960,330C12480,330,12000,330,11520,330C11040,330,10560,330,10080,330C9600,330,9120,330,8640,330C8160,330,7680,330,7200,330C6720,330,6240,330,5760,330C5280,330,4800,330,4320,330C3840,330,3360,330,2880,330C2400,330,1920,330,1440,330C960,330,480,330,240,330L0,330Z"/></svg>